<svg xmlns="http://www.w3.org/2000/svg" xmlns:xlink="http://www.w3.org/1999/xlink" width="320" zoomAndPan="magnify" viewBox="0 0 135 134.999994" height="320" preserveAspectRatio="xMidYMid meet" version="1.0"><defs><filter x="0%" y="0%" width="100%" height="100%" id="0eaf3fe6d3"><feColorMatrix values="0 0 0 0 1 0 0 0 0 1 0 0 0 0 1 0 0 0 1 0" color-interpolation-filters="sRGB"/></filter><g/><mask id="44088a811a"><g filter="url(#0eaf3fe6d3)"><rect x="-107.7" width="194.4" fill="#000000" y="-124.699999" height="194.399991" fill-opacity="0.85"/></g></mask><clipPath id="3002525c91"><path d="M 0 0.878906 L 19.679688 0.878906 L 19.679688 37 L 0 37 Z M 0 0.878906 " clip-rule="nonzero"/></clipPath><clipPath id="30ea0371a4"><rect x="0" width="20" y="0" height="37"/></clipPath><clipPath id="8c7c34d708"><rect x="0" width="20" y="0" height="37"/></clipPath><clipPath id="e8ddb7fd9a"><path d="M 18 16 L 55.441406 16 L 55.441406 33 L 18 33 Z M 18 16 " clip-rule="nonzero"/></clipPath><clipPath id="a45f4fcf2e"><rect x="0" width="38" y="0" height="17"/></clipPath><clipPath id="3304bc5363"><rect x="0" width="56" y="0" height="40"/></clipPath></defs><g transform="matrix(1, 0, 0, 1, 78, 95)"><g clip-path="url(#3304bc5363)"><g mask="url(#44088a811a)"><g transform="matrix(1, 0, 0, 1, 0, 3)"><g clip-path="url(#8c7c34d708)"><g clip-path="url(#3002525c91)"><g><g clip-path="url(#30ea0371a4)"><g fill="#f6f4fa" fill-opacity="1"><g transform="translate(0.0643542, 25.754397)"><g><path d="M 5.6875 2.1875 C 4.894531 2.1875 4.050781 1.957031 3.15625 1.5 C 2.269531 1.039062 1.519531 0.441406 0.90625 -0.296875 C 0.300781 -1.046875 0 -1.867188 0 -2.765625 C 0 -4.085938 0.222656 -5.140625 0.671875 -5.921875 C 1.117188 -6.710938 1.664062 -7.332031 2.3125 -7.78125 C 2.96875 -8.226562 3.59375 -8.554688 4.1875 -8.765625 C 5.289062 -9.203125 6.242188 -9.445312 7.046875 -9.5 C 7.847656 -9.550781 8.375 -9.492188 8.625 -9.328125 C 8.882812 -9.171875 8.757812 -8.972656 8.25 -8.734375 C 7.863281 -8.546875 7.363281 -8.25 6.75 -7.84375 C 6.144531 -7.4375 5.535156 -6.972656 4.921875 -6.453125 C 4.316406 -5.941406 3.804688 -5.398438 3.390625 -4.828125 C 2.972656 -4.265625 2.765625 -3.722656 2.765625 -3.203125 C 2.765625 -2.910156 2.890625 -2.679688 3.140625 -2.515625 C 3.398438 -2.359375 3.707031 -2.28125 4.0625 -2.28125 C 4.789062 -2.28125 5.617188 -2.460938 6.546875 -2.828125 C 7.484375 -3.191406 8.441406 -3.671875 9.421875 -4.265625 C 10.398438 -4.859375 11.289062 -5.492188 12.09375 -6.171875 C 12.90625 -6.847656 13.5625 -7.507812 14.0625 -8.15625 C 14.570312 -8.8125 14.828125 -9.351562 14.828125 -9.78125 C 14.828125 -10.519531 14.5 -10.992188 13.84375 -11.203125 C 13.195312 -11.421875 12.359375 -11.515625 11.328125 -11.484375 C 10.296875 -11.460938 9.226562 -11.453125 8.125 -11.453125 C 6.632812 -11.453125 5.378906 -11.847656 4.359375 -12.640625 C 3.347656 -13.441406 2.84375 -14.546875 2.84375 -15.953125 C 2.84375 -17.203125 3.179688 -18.335938 3.859375 -19.359375 C 4.535156 -20.390625 5.398438 -21.273438 6.453125 -22.015625 C 7.515625 -22.765625 8.632812 -23.34375 9.8125 -23.75 C 10.988281 -24.15625 12.078125 -24.359375 13.078125 -24.359375 C 13.859375 -24.359375 14.617188 -24.148438 15.359375 -23.734375 C 16.109375 -23.316406 16.734375 -22.820312 17.234375 -22.25 C 17.734375 -21.6875 17.984375 -21.203125 17.984375 -20.796875 C 17.984375 -20.441406 17.800781 -20.285156 17.4375 -20.328125 C 17.070312 -20.367188 16.742188 -20.390625 16.453125 -20.390625 C 15.828125 -20.390625 15.070312 -20.300781 14.1875 -20.125 C 13.3125 -19.945312 12.410156 -19.707031 11.484375 -19.40625 C 10.566406 -19.113281 9.707031 -18.773438 8.90625 -18.390625 C 8.113281 -18.015625 7.46875 -17.613281 6.96875 -17.1875 C 6.46875 -16.769531 6.21875 -16.359375 6.21875 -15.953125 C 6.21875 -15.628906 6.453125 -15.398438 6.921875 -15.265625 C 7.398438 -15.128906 8.007812 -15.054688 8.75 -15.046875 C 9.5 -15.035156 10.273438 -15.03125 11.078125 -15.03125 C 11.890625 -15.03125 12.625 -14.988281 13.28125 -14.90625 C 14.5 -14.769531 15.519531 -14.390625 16.34375 -13.765625 C 17.164062 -13.140625 17.78125 -12.4375 18.1875 -11.65625 C 18.59375 -10.875 18.796875 -10.144531 18.796875 -9.46875 C 18.796875 -8.789062 18.585938 -7.945312 18.171875 -6.9375 C 17.753906 -5.9375 17.148438 -4.910156 16.359375 -3.859375 C 15.578125 -2.804688 14.644531 -1.816406 13.5625 -0.890625 C 12.476562 0.0234375 11.269531 0.765625 9.9375 1.328125 C 8.613281 1.898438 7.195312 2.1875 5.6875 2.1875 Z M 5.6875 2.1875 "/></g></g></g></g></g></g></g></g></g><g fill="#9b8bbd" fill-opacity="1"><g transform="translate(19.270761, 13.034015)"><g><path d="M 3.390625 -5.703125 C 3.703125 -5.753906 4.050781 -5.765625 4.4375 -5.734375 C 4.832031 -5.703125 5.210938 -5.617188 5.578125 -5.484375 C 5.953125 -5.359375 6.269531 -5.160156 6.53125 -4.890625 C 6.582031 -4.816406 6.5625 -4.703125 6.46875 -4.546875 C 6.382812 -4.398438 6.28125 -4.273438 6.15625 -4.171875 C 6.03125 -4.066406 5.929688 -4.03125 5.859375 -4.0625 C 5.578125 -4.28125 5.257812 -4.4375 4.90625 -4.53125 C 4.550781 -4.632812 4.210938 -4.664062 3.890625 -4.625 C 3.492188 -4.59375 3.117188 -4.414062 2.765625 -4.09375 C 2.421875 -3.78125 2.15625 -3.398438 1.96875 -2.953125 C 1.78125 -2.535156 1.671875 -2.148438 1.640625 -1.796875 C 1.617188 -1.453125 1.671875 -1.21875 1.796875 -1.09375 C 1.960938 -0.9375 2.148438 -0.925781 2.359375 -1.0625 C 2.566406 -1.207031 2.78125 -1.441406 3 -1.765625 C 3.226562 -2.085938 3.429688 -2.445312 3.609375 -2.84375 C 3.785156 -3.238281 3.925781 -3.609375 4.03125 -3.953125 C 4.113281 -4.035156 4.234375 -4.082031 4.390625 -4.09375 C 4.546875 -4.101562 4.710938 -4.085938 4.890625 -4.046875 C 5.066406 -4.003906 5.21875 -3.945312 5.34375 -3.875 C 5.46875 -3.800781 5.539062 -3.726562 5.5625 -3.65625 C 5.5 -3.445312 5.425781 -3.191406 5.34375 -2.890625 C 5.257812 -2.585938 5.1875 -2.285156 5.125 -1.984375 C 4.96875 -1.316406 5.046875 -0.984375 5.359375 -0.984375 C 5.503906 -0.992188 5.6875 -1.082031 5.90625 -1.25 C 6.132812 -1.414062 6.359375 -1.640625 6.578125 -1.921875 C 6.804688 -2.203125 7 -2.515625 7.15625 -2.859375 C 7.1875 -2.921875 7.25 -2.9375 7.34375 -2.90625 C 7.445312 -2.875 7.535156 -2.820312 7.609375 -2.75 C 7.679688 -2.6875 7.707031 -2.628906 7.6875 -2.578125 C 7.4375 -2.085938 7.148438 -1.640625 6.828125 -1.234375 C 6.503906 -0.828125 6.148438 -0.503906 5.765625 -0.265625 C 5.378906 -0.0351562 4.96875 0.078125 4.53125 0.078125 C 4.195312 0.078125 3.953125 -0.0664062 3.796875 -0.359375 C 3.640625 -0.648438 3.597656 -1.039062 3.671875 -1.53125 C 3.515625 -1.269531 3.335938 -1.015625 3.140625 -0.765625 C 2.953125 -0.515625 2.722656 -0.304688 2.453125 -0.140625 C 2.191406 0.015625 1.867188 0.0976562 1.484375 0.109375 C 1.171875 0.117188 0.878906 0.0546875 0.609375 -0.078125 C 0.347656 -0.222656 0.144531 -0.457031 0 -0.78125 C -0.144531 -1.101562 -0.175781 -1.535156 -0.09375 -2.078125 C -0.0195312 -2.554688 0.128906 -3.003906 0.359375 -3.421875 C 0.585938 -3.835938 0.863281 -4.203125 1.1875 -4.515625 C 1.519531 -4.835938 1.878906 -5.097656 2.265625 -5.296875 C 2.648438 -5.503906 3.023438 -5.640625 3.390625 -5.703125 Z M 3.390625 -5.703125 "/></g></g></g><g fill="#9b8bbd" fill-opacity="1"><g transform="translate(26.304409, 13.034015)"><g><path d="M 1.390625 3.984375 C 0.890625 3.992188 0.488281 3.867188 0.1875 3.609375 C -0.113281 3.359375 -0.234375 3 -0.171875 2.53125 C -0.109375 2.0625 0.0703125 1.691406 0.375 1.421875 C 0.675781 1.148438 1.046875 0.929688 1.484375 0.765625 C 1.929688 0.609375 2.390625 0.46875 2.859375 0.34375 C 2.929688 0.132812 3.015625 -0.109375 3.109375 -0.390625 C 3.203125 -0.679688 3.300781 -0.992188 3.40625 -1.328125 C 3.019531 -0.765625 2.613281 -0.378906 2.1875 -0.171875 C 1.769531 0.0351562 1.378906 0.128906 1.015625 0.109375 C 0.597656 0.0859375 0.289062 -0.015625 0.09375 -0.203125 C -0.101562 -0.390625 -0.210938 -0.628906 -0.234375 -0.921875 C -0.253906 -1.222656 -0.222656 -1.539062 -0.140625 -1.875 C 0.00390625 -2.5 0.171875 -3.125 0.359375 -3.75 C 0.554688 -4.375 0.726562 -4.976562 0.875 -5.5625 C 0.925781 -5.632812 1.035156 -5.6875 1.203125 -5.71875 C 1.367188 -5.75 1.550781 -5.753906 1.75 -5.734375 C 1.945312 -5.722656 2.117188 -5.6875 2.265625 -5.625 C 2.421875 -5.570312 2.507812 -5.488281 2.53125 -5.375 C 2.394531 -4.875 2.253906 -4.335938 2.109375 -3.765625 C 1.960938 -3.191406 1.820312 -2.625 1.6875 -2.0625 C 1.613281 -1.75 1.578125 -1.488281 1.578125 -1.28125 C 1.578125 -1.082031 1.675781 -0.988281 1.875 -1 C 2.050781 -1.007812 2.238281 -1.109375 2.4375 -1.296875 C 2.632812 -1.484375 2.820312 -1.722656 3 -2.015625 C 3.175781 -2.304688 3.328125 -2.609375 3.453125 -2.921875 C 3.617188 -3.335938 3.769531 -3.78125 3.90625 -4.25 C 4.039062 -4.71875 4.164062 -5.15625 4.28125 -5.5625 C 4.351562 -5.65625 4.472656 -5.710938 4.640625 -5.734375 C 4.804688 -5.753906 4.988281 -5.75 5.1875 -5.71875 C 5.382812 -5.695312 5.554688 -5.65625 5.703125 -5.59375 C 5.859375 -5.53125 5.941406 -5.453125 5.953125 -5.359375 C 5.753906 -4.609375 5.570312 -3.945312 5.40625 -3.375 C 5.25 -2.800781 5.097656 -2.257812 4.953125 -1.75 C 4.816406 -1.238281 4.671875 -0.703125 4.515625 -0.140625 C 5.003906 -0.347656 5.4375 -0.664062 5.8125 -1.09375 C 6.1875 -1.53125 6.554688 -2.125 6.921875 -2.875 C 6.953125 -2.925781 7.015625 -2.9375 7.109375 -2.90625 C 7.203125 -2.875 7.285156 -2.820312 7.359375 -2.75 C 7.441406 -2.6875 7.46875 -2.628906 7.4375 -2.578125 C 7.125 -1.941406 6.8125 -1.410156 6.5 -0.984375 C 6.1875 -0.554688 5.851562 -0.207031 5.5 0.0625 C 5.144531 0.34375 4.738281 0.582031 4.28125 0.78125 C 4.039062 1.582031 3.800781 2.21875 3.5625 2.6875 C 3.332031 3.15625 3.046875 3.488281 2.703125 3.6875 C 2.367188 3.882812 1.929688 3.984375 1.390625 3.984375 Z M 1.640625 2.875 C 1.765625 2.851562 1.894531 2.78125 2.03125 2.65625 C 2.175781 2.53125 2.296875 2.332031 2.390625 2.0625 C 2.441406 1.9375 2.484375 1.804688 2.515625 1.671875 C 2.546875 1.535156 2.582031 1.398438 2.625 1.265625 C 2.382812 1.359375 2.160156 1.46875 1.953125 1.59375 C 1.742188 1.726562 1.582031 1.867188 1.46875 2.015625 C 1.289062 2.210938 1.210938 2.414062 1.234375 2.625 C 1.265625 2.832031 1.398438 2.914062 1.640625 2.875 Z M 1.640625 2.875 "/></g></g></g><g clip-path="url(#e8ddb7fd9a)"><g transform="matrix(1, 0, 0, 1, 18, 16)"><g clip-path="url(#a45f4fcf2e)"><g fill="#9b8bbd" fill-opacity="1"><g transform="translate(1.270761, 12.439264)"><g><path d="M 3.390625 -5.703125 C 3.703125 -5.753906 4.050781 -5.765625 4.4375 -5.734375 C 4.832031 -5.703125 5.210938 -5.617188 5.578125 -5.484375 C 5.953125 -5.359375 6.269531 -5.160156 6.53125 -4.890625 C 6.582031 -4.816406 6.5625 -4.703125 6.46875 -4.546875 C 6.382812 -4.398438 6.28125 -4.273438 6.15625 -4.171875 C 6.03125 -4.066406 5.929688 -4.03125 5.859375 -4.0625 C 5.578125 -4.28125 5.257812 -4.4375 4.90625 -4.53125 C 4.550781 -4.632812 4.210938 -4.664062 3.890625 -4.625 C 3.492188 -4.59375 3.117188 -4.414062 2.765625 -4.09375 C 2.421875 -3.78125 2.15625 -3.398438 1.96875 -2.953125 C 1.78125 -2.535156 1.671875 -2.148438 1.640625 -1.796875 C 1.617188 -1.453125 1.671875 -1.21875 1.796875 -1.09375 C 1.960938 -0.9375 2.148438 -0.925781 2.359375 -1.0625 C 2.566406 -1.207031 2.78125 -1.441406 3 -1.765625 C 3.226562 -2.085938 3.429688 -2.445312 3.609375 -2.84375 C 3.785156 -3.238281 3.925781 -3.609375 4.03125 -3.953125 C 4.113281 -4.035156 4.234375 -4.082031 4.390625 -4.09375 C 4.546875 -4.101562 4.710938 -4.085938 4.890625 -4.046875 C 5.066406 -4.003906 5.21875 -3.945312 5.34375 -3.875 C 5.46875 -3.800781 5.539062 -3.726562 5.5625 -3.65625 C 5.5 -3.445312 5.425781 -3.191406 5.34375 -2.890625 C 5.257812 -2.585938 5.1875 -2.285156 5.125 -1.984375 C 4.96875 -1.316406 5.046875 -0.984375 5.359375 -0.984375 C 5.503906 -0.992188 5.6875 -1.082031 5.90625 -1.25 C 6.132812 -1.414062 6.359375 -1.640625 6.578125 -1.921875 C 6.804688 -2.203125 7 -2.515625 7.15625 -2.859375 C 7.1875 -2.921875 7.25 -2.9375 7.34375 -2.90625 C 7.445312 -2.875 7.535156 -2.820312 7.609375 -2.75 C 7.679688 -2.6875 7.707031 -2.628906 7.6875 -2.578125 C 7.4375 -2.085938 7.148438 -1.640625 6.828125 -1.234375 C 6.503906 -0.828125 6.148438 -0.503906 5.765625 -0.265625 C 5.378906 -0.0351562 4.96875 0.078125 4.53125 0.078125 C 4.195312 0.078125 3.953125 -0.0664062 3.796875 -0.359375 C 3.640625 -0.648438 3.597656 -1.039062 3.671875 -1.53125 C 3.515625 -1.269531 3.335938 -1.015625 3.140625 -0.765625 C 2.953125 -0.515625 2.722656 -0.304688 2.453125 -0.140625 C 2.191406 0.015625 1.867188 0.0976562 1.484375 0.109375 C 1.171875 0.117188 0.878906 0.0546875 0.609375 -0.078125 C 0.347656 -0.222656 0.144531 -0.457031 0 -0.78125 C -0.144531 -1.101562 -0.175781 -1.535156 -0.09375 -2.078125 C -0.0195312 -2.554688 0.128906 -3.003906 0.359375 -3.421875 C 0.585938 -3.835938 0.863281 -4.203125 1.1875 -4.515625 C 1.519531 -4.835938 1.878906 -5.097656 2.265625 -5.296875 C 2.648438 -5.503906 3.023438 -5.640625 3.390625 -5.703125 Z M 3.390625 -5.703125 "/></g></g></g><g fill="#9b8bbd" fill-opacity="1"><g transform="translate(8.302818, 12.439264)"><g><path d="M 2.8125 -8.984375 C 3.164062 -9.203125 3.515625 -9.304688 3.859375 -9.296875 C 4.210938 -9.285156 4.523438 -9.175781 4.796875 -8.96875 C 5.066406 -8.769531 5.253906 -8.484375 5.359375 -8.109375 C 5.472656 -7.742188 5.460938 -7.296875 5.328125 -6.765625 C 5.117188 -5.960938 4.710938 -5.242188 4.109375 -4.609375 C 3.515625 -3.984375 2.742188 -3.507812 1.796875 -3.1875 C 1.660156 -2.53125 1.644531 -1.992188 1.75 -1.578125 C 1.851562 -1.171875 2.125 -0.953125 2.5625 -0.921875 C 2.976562 -0.898438 3.40625 -1.0625 3.84375 -1.40625 C 4.289062 -1.757812 4.671875 -2.25 4.984375 -2.875 C 5.015625 -2.925781 5.070312 -2.9375 5.15625 -2.90625 C 5.25 -2.875 5.335938 -2.820312 5.421875 -2.75 C 5.503906 -2.6875 5.53125 -2.628906 5.5 -2.578125 C 5.238281 -2.066406 4.945312 -1.59375 4.625 -1.15625 C 4.3125 -0.726562 3.9375 -0.394531 3.5 -0.15625 C 3.0625 0.0820312 2.523438 0.171875 1.890625 0.109375 C 1.242188 0.0351562 0.785156 -0.207031 0.515625 -0.625 C 0.242188 -1.039062 0.113281 -1.582031 0.125 -2.25 C 0.132812 -2.925781 0.226562 -3.679688 0.40625 -4.515625 C 0.550781 -5.160156 0.738281 -5.78125 0.96875 -6.375 C 1.195312 -6.96875 1.46875 -7.492188 1.78125 -7.953125 C 2.09375 -8.410156 2.4375 -8.753906 2.8125 -8.984375 Z M 3.8125 -8.078125 C 3.644531 -8.085938 3.472656 -7.941406 3.296875 -7.640625 C 3.128906 -7.347656 2.957031 -6.976562 2.78125 -6.53125 C 2.675781 -6.226562 2.546875 -5.863281 2.390625 -5.4375 C 2.242188 -5.019531 2.117188 -4.617188 2.015625 -4.234375 C 2.359375 -4.441406 2.675781 -4.742188 2.96875 -5.140625 C 3.269531 -5.535156 3.5 -5.925781 3.65625 -6.3125 C 3.789062 -6.625 3.882812 -6.914062 3.9375 -7.1875 C 4 -7.457031 4.019531 -7.671875 4 -7.828125 C 3.988281 -7.992188 3.925781 -8.078125 3.8125 -8.078125 Z M 3.8125 -8.078125 "/></g></g></g><g fill="#9b8bbd" fill-opacity="1"><g transform="translate(13.156682, 12.439264)"><g><path d="M 3.390625 -5.703125 C 3.703125 -5.753906 4.050781 -5.765625 4.4375 -5.734375 C 4.832031 -5.703125 5.210938 -5.617188 5.578125 -5.484375 C 5.953125 -5.359375 6.269531 -5.160156 6.53125 -4.890625 C 6.582031 -4.816406 6.5625 -4.703125 6.46875 -4.546875 C 6.382812 -4.398438 6.28125 -4.273438 6.15625 -4.171875 C 6.03125 -4.066406 5.929688 -4.03125 5.859375 -4.0625 C 5.578125 -4.28125 5.257812 -4.4375 4.90625 -4.53125 C 4.550781 -4.632812 4.210938 -4.664062 3.890625 -4.625 C 3.492188 -4.59375 3.117188 -4.414062 2.765625 -4.09375 C 2.421875 -3.78125 2.15625 -3.398438 1.96875 -2.953125 C 1.78125 -2.535156 1.671875 -2.148438 1.640625 -1.796875 C 1.617188 -1.453125 1.671875 -1.21875 1.796875 -1.09375 C 1.960938 -0.9375 2.148438 -0.925781 2.359375 -1.0625 C 2.566406 -1.207031 2.78125 -1.441406 3 -1.765625 C 3.226562 -2.085938 3.429688 -2.445312 3.609375 -2.84375 C 3.785156 -3.238281 3.925781 -3.609375 4.03125 -3.953125 C 4.113281 -4.035156 4.234375 -4.082031 4.390625 -4.09375 C 4.546875 -4.101562 4.710938 -4.085938 4.890625 -4.046875 C 5.066406 -4.003906 5.21875 -3.945312 5.34375 -3.875 C 5.46875 -3.800781 5.539062 -3.726562 5.5625 -3.65625 C 5.5 -3.445312 5.425781 -3.191406 5.34375 -2.890625 C 5.257812 -2.585938 5.1875 -2.285156 5.125 -1.984375 C 4.96875 -1.316406 5.046875 -0.984375 5.359375 -0.984375 C 5.503906 -0.992188 5.6875 -1.082031 5.90625 -1.25 C 6.132812 -1.414062 6.359375 -1.640625 6.578125 -1.921875 C 6.804688 -2.203125 7 -2.515625 7.15625 -2.859375 C 7.1875 -2.921875 7.25 -2.9375 7.34375 -2.90625 C 7.445312 -2.875 7.535156 -2.820312 7.609375 -2.75 C 7.679688 -2.6875 7.707031 -2.628906 7.6875 -2.578125 C 7.4375 -2.085938 7.148438 -1.640625 6.828125 -1.234375 C 6.503906 -0.828125 6.148438 -0.503906 5.765625 -0.265625 C 5.378906 -0.0351562 4.96875 0.078125 4.53125 0.078125 C 4.195312 0.078125 3.953125 -0.0664062 3.796875 -0.359375 C 3.640625 -0.648438 3.597656 -1.039062 3.671875 -1.53125 C 3.515625 -1.269531 3.335938 -1.015625 3.140625 -0.765625 C 2.953125 -0.515625 2.722656 -0.304688 2.453125 -0.140625 C 2.191406 0.015625 1.867188 0.0976562 1.484375 0.109375 C 1.171875 0.117188 0.878906 0.0546875 0.609375 -0.078125 C 0.347656 -0.222656 0.144531 -0.457031 0 -0.78125 C -0.144531 -1.101562 -0.175781 -1.535156 -0.09375 -2.078125 C -0.0195312 -2.554688 0.128906 -3.003906 0.359375 -3.421875 C 0.585938 -3.835938 0.863281 -4.203125 1.1875 -4.515625 C 1.519531 -4.835938 1.878906 -5.097656 2.265625 -5.296875 C 2.648438 -5.503906 3.023438 -5.640625 3.390625 -5.703125 Z M 3.390625 -5.703125 "/></g></g></g><g fill="#9b8bbd" fill-opacity="1"><g transform="translate(20.188739, 12.439264)"><g><path d="M 7.59375 0.125 C 7 0.132812 6.609375 -0.00390625 6.421875 -0.296875 C 6.234375 -0.585938 6.1875 -0.984375 6.28125 -1.484375 C 6.320312 -1.640625 6.375 -1.859375 6.4375 -2.140625 C 6.5 -2.421875 6.566406 -2.707031 6.640625 -3 C 6.722656 -3.289062 6.789062 -3.546875 6.84375 -3.765625 C 6.894531 -3.941406 6.910156 -4.109375 6.890625 -4.265625 C 6.867188 -4.421875 6.757812 -4.5 6.5625 -4.5 C 6.363281 -4.488281 6.140625 -4.367188 5.890625 -4.140625 C 5.640625 -3.910156 5.4375 -3.664062 5.28125 -3.40625 C 5.207031 -3.101562 5.125 -2.753906 5.03125 -2.359375 C 4.9375 -1.972656 4.835938 -1.582031 4.734375 -1.1875 C 4.640625 -0.789062 4.5625 -0.441406 4.5 -0.140625 C 4.445312 -0.0664062 4.332031 -0.0078125 4.15625 0.03125 C 3.988281 0.0703125 3.796875 0.09375 3.578125 0.09375 C 3.359375 0.09375 3.164062 0.0664062 3 0.015625 C 2.84375 -0.0234375 2.75 -0.0976562 2.71875 -0.203125 C 2.851562 -0.796875 2.988281 -1.382812 3.125 -1.96875 C 3.269531 -2.5625 3.429688 -3.1875 3.609375 -3.84375 C 3.640625 -4 3.644531 -4.144531 3.625 -4.28125 C 3.601562 -4.414062 3.507812 -4.476562 3.34375 -4.46875 C 3.15625 -4.457031 2.941406 -4.347656 2.703125 -4.140625 C 2.460938 -3.929688 2.238281 -3.679688 2.03125 -3.390625 C 1.875 -2.828125 1.726562 -2.285156 1.59375 -1.765625 C 1.46875 -1.253906 1.335938 -0.710938 1.203125 -0.140625 C 1.171875 -0.0664062 1.0625 -0.0078125 0.875 0.03125 C 0.6875 0.0703125 0.476562 0.0859375 0.25 0.078125 C 0.03125 0.078125 -0.160156 0.0507812 -0.328125 0 C -0.492188 -0.0625 -0.578125 -0.15625 -0.578125 -0.28125 C -0.347656 -1.164062 -0.117188 -2.035156 0.109375 -2.890625 C 0.347656 -3.742188 0.609375 -4.644531 0.890625 -5.59375 C 0.960938 -5.664062 1.082031 -5.710938 1.25 -5.734375 C 1.414062 -5.765625 1.59375 -5.769531 1.78125 -5.75 C 1.96875 -5.726562 2.132812 -5.6875 2.28125 -5.625 C 2.425781 -5.5625 2.519531 -5.476562 2.5625 -5.375 C 2.507812 -5.238281 2.460938 -5.085938 2.421875 -4.921875 C 2.378906 -4.765625 2.332031 -4.625 2.28125 -4.5 C 2.457031 -4.6875 2.660156 -4.875 2.890625 -5.0625 C 3.117188 -5.257812 3.367188 -5.421875 3.640625 -5.546875 C 3.910156 -5.679688 4.171875 -5.75 4.421875 -5.75 C 4.773438 -5.75 5.039062 -5.640625 5.21875 -5.421875 C 5.394531 -5.210938 5.460938 -4.925781 5.421875 -4.5625 C 5.679688 -4.851562 5.992188 -5.125 6.359375 -5.375 C 6.734375 -5.625 7.132812 -5.75 7.5625 -5.75 C 8.113281 -5.75 8.472656 -5.585938 8.640625 -5.265625 C 8.804688 -4.941406 8.820312 -4.507812 8.6875 -3.96875 C 8.644531 -3.769531 8.582031 -3.539062 8.5 -3.28125 C 8.414062 -3.019531 8.332031 -2.753906 8.25 -2.484375 C 8.175781 -2.210938 8.117188 -1.957031 8.078125 -1.71875 C 8.035156 -1.488281 8.023438 -1.300781 8.046875 -1.15625 C 8.078125 -1.019531 8.164062 -0.953125 8.3125 -0.953125 C 8.457031 -0.953125 8.628906 -1.035156 8.828125 -1.203125 C 9.035156 -1.367188 9.242188 -1.597656 9.453125 -1.890625 C 9.671875 -2.179688 9.859375 -2.507812 10.015625 -2.875 C 10.046875 -2.9375 10.109375 -2.945312 10.203125 -2.90625 C 10.296875 -2.875 10.378906 -2.820312 10.453125 -2.75 C 10.535156 -2.6875 10.5625 -2.628906 10.53125 -2.578125 C 10.382812 -2.304688 10.210938 -2.015625 10.015625 -1.703125 C 9.828125 -1.390625 9.613281 -1.097656 9.375 -0.828125 C 9.132812 -0.566406 8.863281 -0.347656 8.5625 -0.171875 C 8.269531 0.00390625 7.945312 0.101562 7.59375 0.125 Z M 7.59375 0.125 "/></g></g></g><g fill="#9b8bbd" fill-opacity="1"><g transform="translate(30.071259, 12.439264)"><g><path d="M 2.25 0.15625 C 2.007812 0.15625 1.765625 0.101562 1.515625 0 C 1.265625 -0.09375 1.050781 -0.242188 0.875 -0.453125 C 0.707031 -0.660156 0.601562 -0.925781 0.5625 -1.25 C 0.601562 -1.382812 0.6875 -1.492188 0.8125 -1.578125 C 0.9375 -1.660156 1.066406 -1.710938 1.203125 -1.734375 C 1.347656 -1.765625 1.460938 -1.75 1.546875 -1.6875 C 1.535156 -1.476562 1.59375 -1.296875 1.71875 -1.140625 C 1.84375 -0.992188 2.003906 -0.921875 2.203125 -0.921875 C 2.429688 -0.921875 2.609375 -1.003906 2.734375 -1.171875 C 2.617188 -1.273438 2.554688 -1.398438 2.546875 -1.546875 C 2.535156 -1.691406 2.566406 -1.820312 2.640625 -1.9375 C 2.722656 -2.050781 2.828125 -2.113281 2.953125 -2.125 C 2.953125 -2.613281 2.875 -3.109375 2.71875 -3.609375 C 2.5625 -4.117188 2.445312 -4.628906 2.375 -5.140625 C 2.164062 -4.921875 1.941406 -4.640625 1.703125 -4.296875 C 1.460938 -3.960938 1.234375 -3.601562 1.015625 -3.21875 C 0.796875 -2.84375 0.601562 -2.492188 0.4375 -2.171875 C 0.40625 -2.109375 0.335938 -2.085938 0.234375 -2.109375 C 0.140625 -2.140625 0.0546875 -2.191406 -0.015625 -2.265625 C -0.0859375 -2.335938 -0.109375 -2.40625 -0.078125 -2.46875 C 0.0976562 -2.832031 0.300781 -3.210938 0.53125 -3.609375 C 0.769531 -4.015625 1.023438 -4.40625 1.296875 -4.78125 C 1.566406 -5.164062 1.851562 -5.5 2.15625 -5.78125 C 2.425781 -6.039062 2.707031 -6.210938 3 -6.296875 C 3.289062 -6.378906 3.546875 -6.382812 3.765625 -6.3125 C 3.992188 -6.25 4.140625 -6.125 4.203125 -5.9375 C 4.273438 -5.75 4.210938 -5.519531 4.015625 -5.25 C 4.117188 -4.695312 4.234375 -4.207031 4.359375 -3.78125 C 4.492188 -3.351562 4.597656 -2.945312 4.671875 -2.5625 C 4.742188 -2.1875 4.726562 -1.785156 4.625 -1.359375 C 4.914062 -1.378906 5.21875 -1.5 5.53125 -1.71875 C 5.84375 -1.945312 6.125 -2.332031 6.375 -2.875 C 6.40625 -2.925781 6.46875 -2.9375 6.5625 -2.90625 C 6.65625 -2.875 6.738281 -2.820312 6.8125 -2.75 C 6.882812 -2.6875 6.914062 -2.628906 6.90625 -2.578125 C 6.539062 -1.828125 6.128906 -1.320312 5.671875 -1.0625 C 5.222656 -0.800781 4.769531 -0.675781 4.3125 -0.6875 C 4.113281 -0.40625 3.832031 -0.191406 3.46875 -0.046875 C 3.101562 0.0859375 2.695312 0.15625 2.25 0.15625 Z M 2.25 0.15625 "/></g></g></g></g></g></g></g></g></svg>