<svg xmlns="http://www.w3.org/2000/svg" xmlns:xlink="http://www.w3.org/1999/xlink" width="320" zoomAndPan="magnify" viewBox="0 0 135 134.999994" height="320" preserveAspectRatio="xMidYMid meet" version="1.0"><defs><filter x="0%" y="0%" width="100%" height="100%" id="8c1b2f8721"><feColorMatrix values="0 0 0 0 1 0 0 0 0 1 0 0 0 0 1 0 0 0 1 0" color-interpolation-filters="sRGB"/></filter><g/><clipPath id="e29b3ba3e7"><path d="M 0.921875 9 L 60 9 L 60 65 L 0.921875 65 Z M 0.921875 9 " clip-rule="nonzero"/></clipPath><mask id="9c29d16877"><g filter="url(#8c1b2f8721)"><rect x="-66.7" width="194.4" fill="#000000" y="-99.699999" height="194.399991" fill-opacity="0.85"/></g></mask><clipPath id="6d43280052"><path d="M 0.921875 0.679688 L 59.960938 0.679688 L 59.960938 56 L 0.921875 56 Z M 0.921875 0.679688 " clip-rule="nonzero"/></clipPath><clipPath id="4970cf0199"><path d="M 1 1 L 58 1 L 58 56 L 1 56 Z M 1 1 " clip-rule="nonzero"/></clipPath><clipPath id="1fe35056bd"><rect x="0" width="60" y="0" height="56"/></clipPath><clipPath id="27f2008db4"><rect x="0" width="60" y="0" height="56"/></clipPath><clipPath id="9871fb02c7"><path d="M 79 19 L 98 19 L 98 49 L 79 49 Z M 79 19 " clip-rule="nonzero"/></clipPath><clipPath id="0ea56fc5f0"><path d="M 23 8 L 41 8 L 41 18 L 23 18 Z M 23 8 " clip-rule="nonzero"/></clipPath><clipPath id="8bfcfa9d90"><rect x="0" width="41" y="0" height="18"/></clipPath><clipPath id="29a5ad024f"><rect x="0" width="98" y="0" height="65"/></clipPath></defs><g transform="matrix(1, 0, 0, 1, 37, 70)"><g clip-path="url(#29a5ad024f)"><g clip-path="url(#e29b3ba3e7)"><g mask="url(#9c29d16877)"><g transform="matrix(1, 0, 0, 1, 0, 9)"><g clip-path="url(#27f2008db4)"><g clip-path="url(#6d43280052)"><g><g clip-path="url(#1fe35056bd)"><g clip-path="url(#4970cf0199)"><g fill="#f6f4fa" fill-opacity="1"><g transform="translate(1.105431, 75.366775)"><g><path d="M 17.15625 6.625 C 14.789062 6.625 12.257812 5.925781 9.5625 4.53125 C 6.863281 3.144531 4.59375 1.328125 2.75 -0.921875 C 0.914062 -3.171875 0 -5.640625 0 -8.328125 C 0 -12.335938 0.671875 -15.523438 2.015625 -17.890625 C 3.367188 -20.265625 5.023438 -22.125 6.984375 -23.46875 C 8.941406 -24.820312 10.820312 -25.828125 12.625 -26.484375 C 15.976562 -27.785156 18.859375 -28.515625 21.265625 -28.671875 C 23.679688 -28.835938 25.273438 -28.675781 26.046875 -28.1875 C 26.828125 -27.695312 26.441406 -27.085938 24.890625 -26.359375 C 23.742188 -25.785156 22.25 -24.882812 20.40625 -23.65625 C 18.570312 -22.425781 16.734375 -21.035156 14.890625 -19.484375 C 13.054688 -17.929688 11.503906 -16.296875 10.234375 -14.578125 C 8.960938 -12.867188 8.328125 -11.238281 8.328125 -9.6875 C 8.328125 -8.78125 8.71875 -8.082031 9.5 -7.59375 C 10.28125 -7.101562 11.203125 -6.859375 12.265625 -6.859375 C 14.460938 -6.859375 16.972656 -7.410156 19.796875 -8.515625 C 22.617188 -9.617188 25.5 -11.066406 28.4375 -12.859375 C 31.375 -14.660156 34.066406 -16.582031 36.515625 -18.625 C 38.972656 -20.675781 40.957031 -22.679688 42.46875 -24.640625 C 43.976562 -26.597656 44.734375 -28.234375 44.734375 -29.546875 C 44.734375 -31.742188 43.753906 -33.171875 41.796875 -33.828125 C 39.835938 -34.484375 37.304688 -34.769531 34.203125 -34.6875 C 31.097656 -34.601562 27.867188 -34.5625 24.515625 -34.5625 C 20.023438 -34.5625 16.242188 -35.765625 13.171875 -38.171875 C 10.109375 -40.585938 8.578125 -43.921875 8.578125 -48.171875 C 8.578125 -51.929688 9.597656 -55.363281 11.640625 -58.46875 C 13.679688 -61.570312 16.296875 -64.25 19.484375 -66.5 C 22.671875 -68.75 26.039062 -70.484375 29.59375 -71.703125 C 33.15625 -72.929688 36.445312 -73.546875 39.46875 -73.546875 C 41.84375 -73.546875 44.148438 -72.910156 46.390625 -71.640625 C 48.640625 -70.378906 50.519531 -68.890625 52.03125 -67.171875 C 53.539062 -65.453125 54.296875 -63.984375 54.296875 -62.765625 C 54.296875 -61.703125 53.742188 -61.226562 52.640625 -61.34375 C 51.546875 -61.46875 50.546875 -61.53125 49.640625 -61.53125 C 47.765625 -61.53125 45.5 -61.265625 42.84375 -60.734375 C 40.1875 -60.203125 37.46875 -59.488281 34.6875 -58.59375 C 31.90625 -57.695312 29.3125 -56.675781 26.90625 -55.53125 C 24.5 -54.382812 22.535156 -53.175781 21.015625 -51.90625 C 19.503906 -50.644531 18.75 -49.398438 18.75 -48.171875 C 18.75 -47.191406 19.460938 -46.492188 20.890625 -46.078125 C 22.328125 -45.671875 24.164062 -45.445312 26.40625 -45.40625 C 28.65625 -45.375 31.003906 -45.359375 33.453125 -45.359375 C 35.910156 -45.359375 38.117188 -45.234375 40.078125 -44.984375 C 43.753906 -44.578125 46.835938 -43.429688 49.328125 -41.546875 C 51.828125 -39.671875 53.6875 -37.546875 54.90625 -35.171875 C 56.132812 -32.804688 56.75 -30.601562 56.75 -28.5625 C 56.75 -26.519531 56.113281 -23.984375 54.84375 -20.953125 C 53.582031 -17.929688 51.765625 -14.828125 49.390625 -11.640625 C 47.023438 -8.453125 44.207031 -5.46875 40.9375 -2.6875 C 37.664062 0.0820312 34.03125 2.328125 30.03125 4.046875 C 26.03125 5.765625 21.738281 6.625 17.15625 6.625 Z M 17.15625 6.625 "/></g></g></g></g></g></g></g></g></g></g></g><g fill="#9b8bbd" fill-opacity="1"><g transform="translate(59.083409, 36.911974)"><g><path d="M 10.234375 -17.21875 C 11.179688 -17.375 12.242188 -17.40625 13.421875 -17.3125 C 14.597656 -17.21875 15.742188 -16.972656 16.859375 -16.578125 C 17.984375 -16.191406 18.941406 -15.59375 19.734375 -14.78125 C 19.867188 -14.53125 19.804688 -14.179688 19.546875 -13.734375 C 19.285156 -13.296875 18.96875 -12.921875 18.59375 -12.609375 C 18.21875 -12.296875 17.90625 -12.179688 17.65625 -12.265625 C 16.820312 -12.910156 15.867188 -13.378906 14.796875 -13.671875 C 13.722656 -13.972656 12.703125 -14.070312 11.734375 -13.96875 C 10.546875 -13.851562 9.421875 -13.320312 8.359375 -12.375 C 7.304688 -11.425781 6.492188 -10.265625 5.921875 -8.890625 C 5.359375 -7.640625 5.039062 -6.488281 4.96875 -5.4375 C 4.90625 -4.382812 5.0625 -3.664062 5.4375 -3.28125 C 5.925781 -2.820312 6.488281 -2.800781 7.125 -3.21875 C 7.757812 -3.644531 8.40625 -4.34375 9.0625 -5.3125 C 9.726562 -6.289062 10.332031 -7.375 10.875 -8.5625 C 11.414062 -9.75 11.847656 -10.875 12.171875 -11.9375 C 12.421875 -12.175781 12.78125 -12.304688 13.25 -12.328125 C 13.726562 -12.359375 14.226562 -12.3125 14.75 -12.1875 C 15.28125 -12.070312 15.734375 -11.90625 16.109375 -11.6875 C 16.492188 -11.46875 16.726562 -11.253906 16.8125 -11.046875 C 16.613281 -10.390625 16.382812 -9.609375 16.125 -8.703125 C 15.875 -7.796875 15.65625 -6.898438 15.46875 -6.015625 C 15.007812 -3.984375 15.238281 -2.96875 16.15625 -2.96875 C 16.613281 -2.988281 17.179688 -3.25 17.859375 -3.75 C 18.535156 -4.25 19.210938 -4.925781 19.890625 -5.78125 C 20.566406 -6.632812 21.132812 -7.585938 21.59375 -8.640625 C 21.675781 -8.835938 21.863281 -8.882812 22.15625 -8.78125 C 22.457031 -8.6875 22.722656 -8.535156 22.953125 -8.328125 C 23.179688 -8.128906 23.253906 -7.953125 23.171875 -7.796875 C 22.421875 -6.304688 21.554688 -4.953125 20.578125 -3.734375 C 19.609375 -2.515625 18.546875 -1.546875 17.390625 -0.828125 C 16.242188 -0.109375 15.007812 0.25 13.6875 0.25 C 12.675781 0.25 11.929688 -0.1875 11.453125 -1.0625 C 10.984375 -1.945312 10.859375 -3.132812 11.078125 -4.625 C 10.617188 -3.84375 10.097656 -3.070312 9.515625 -2.3125 C 8.929688 -1.550781 8.234375 -0.925781 7.421875 -0.4375 C 6.609375 0.0390625 5.625 0.296875 4.46875 0.328125 C 3.539062 0.347656 2.671875 0.148438 1.859375 -0.265625 C 1.054688 -0.679688 0.4375 -1.375 0 -2.34375 C -0.4375 -3.320312 -0.53125 -4.625 -0.28125 -6.25 C -0.0625 -7.707031 0.390625 -9.066406 1.078125 -10.328125 C 1.765625 -11.585938 2.609375 -12.695312 3.609375 -13.65625 C 4.609375 -14.613281 5.679688 -15.394531 6.828125 -16 C 7.984375 -16.613281 9.117188 -17.019531 10.234375 -17.21875 Z M 10.234375 -17.21875 "/></g></g></g><g clip-path="url(#9871fb02c7)"><g fill="#9b8bbd" fill-opacity="1"><g transform="translate(80.315737, 36.911974)"><g><path d="M 4.1875 12.015625 C 2.695312 12.046875 1.488281 11.675781 0.5625 10.90625 C -0.351562 10.132812 -0.71875 9.039062 -0.53125 7.625 C -0.34375 6.21875 0.207031 5.101562 1.125 4.28125 C 2.050781 3.457031 3.175781 2.800781 4.5 2.3125 C 5.832031 1.820312 7.203125 1.390625 8.609375 1.015625 C 8.847656 0.390625 9.109375 -0.351562 9.390625 -1.21875 C 9.679688 -2.082031 9.972656 -3.015625 10.265625 -4.015625 C 9.109375 -2.316406 7.890625 -1.15625 6.609375 -0.53125 C 5.335938 0.09375 4.160156 0.378906 3.078125 0.328125 C 1.804688 0.273438 0.875 -0.0351562 0.28125 -0.609375 C -0.3125 -1.179688 -0.640625 -1.910156 -0.703125 -2.796875 C -0.773438 -3.691406 -0.691406 -4.640625 -0.453125 -5.640625 C 0.015625 -7.535156 0.535156 -9.429688 1.109375 -11.328125 C 1.691406 -13.222656 2.203125 -15.035156 2.640625 -16.765625 C 2.796875 -17.003906 3.125 -17.164062 3.625 -17.25 C 4.132812 -17.332031 4.6875 -17.351562 5.28125 -17.3125 C 5.875 -17.269531 6.398438 -17.160156 6.859375 -16.984375 C 7.316406 -16.804688 7.570312 -16.554688 7.625 -16.234375 C 7.21875 -14.722656 6.789062 -13.097656 6.34375 -11.359375 C 5.90625 -9.628906 5.484375 -7.910156 5.078125 -6.203125 C 4.859375 -5.285156 4.75 -4.515625 4.75 -3.890625 C 4.75 -3.273438 5.046875 -2.976562 5.640625 -3 C 6.179688 -3.050781 6.75 -3.351562 7.34375 -3.90625 C 7.9375 -4.46875 8.503906 -5.1875 9.046875 -6.0625 C 9.585938 -6.945312 10.050781 -7.863281 10.4375 -8.8125 C 10.914062 -10.082031 11.363281 -11.421875 11.78125 -12.828125 C 12.207031 -14.234375 12.582031 -15.5625 12.90625 -16.8125 C 13.125 -17.082031 13.488281 -17.25 14 -17.3125 C 14.519531 -17.382812 15.078125 -17.378906 15.671875 -17.296875 C 16.265625 -17.210938 16.785156 -17.078125 17.234375 -16.890625 C 17.679688 -16.703125 17.929688 -16.457031 17.984375 -16.15625 C 17.359375 -13.90625 16.800781 -11.914062 16.3125 -10.1875 C 15.832031 -8.457031 15.378906 -6.820312 14.953125 -5.28125 C 14.535156 -3.738281 14.097656 -2.128906 13.640625 -0.453125 C 15.097656 -1.066406 16.394531 -2.023438 17.53125 -3.328125 C 18.664062 -4.628906 19.789062 -6.414062 20.90625 -8.6875 C 20.988281 -8.851562 21.171875 -8.882812 21.453125 -8.78125 C 21.734375 -8.6875 21.988281 -8.535156 22.21875 -8.328125 C 22.445312 -8.128906 22.523438 -7.953125 22.453125 -7.796875 C 21.503906 -5.867188 20.554688 -4.253906 19.609375 -2.953125 C 18.660156 -1.660156 17.648438 -0.601562 16.578125 0.21875 C 15.515625 1.050781 14.289062 1.765625 12.90625 2.359375 C 12.207031 4.765625 11.5 6.675781 10.78125 8.09375 C 10.0625 9.519531 9.191406 10.53125 8.171875 11.125 C 7.160156 11.71875 5.832031 12.015625 4.1875 12.015625 Z M 4.953125 8.6875 C 5.328125 8.601562 5.722656 8.367188 6.140625 7.984375 C 6.566406 7.609375 6.925781 7.015625 7.21875 6.203125 C 7.351562 5.828125 7.472656 5.4375 7.578125 5.03125 C 7.691406 4.625 7.804688 4.21875 7.921875 3.8125 C 7.179688 4.082031 6.5 4.421875 5.875 4.828125 C 5.257812 5.234375 4.773438 5.65625 4.421875 6.09375 C 3.910156 6.6875 3.6875 7.289062 3.75 7.90625 C 3.820312 8.53125 4.222656 8.789062 4.953125 8.6875 Z M 4.953125 8.6875 "/></g></g></g></g><g transform="matrix(1, 0, 0, 1, 57, 47)"><g clip-path="url(#8bfcfa9d90)"><g clip-path="url(#0ea56fc5f0)"><g fill="#9b8bbd" fill-opacity="1"><g transform="translate(23.310935, 36.415507)"><g><path d="M 8.484375 -27.109375 C 9.535156 -27.765625 10.585938 -28.078125 11.640625 -28.046875 C 12.703125 -28.023438 13.644531 -27.707031 14.46875 -27.09375 C 15.289062 -26.488281 15.863281 -25.625 16.1875 -24.5 C 16.519531 -23.375 16.484375 -22.015625 16.078125 -20.421875 C 15.453125 -17.984375 14.234375 -15.816406 12.421875 -13.921875 C 10.609375 -12.023438 8.28125 -10.59375 5.4375 -9.625 C 5.007812 -7.644531 4.957031 -6.03125 5.28125 -4.78125 C 5.601562 -3.539062 6.425781 -2.878906 7.75 -2.796875 C 9 -2.710938 10.289062 -3.195312 11.625 -4.25 C 12.96875 -5.3125 14.113281 -6.789062 15.0625 -8.6875 C 15.144531 -8.851562 15.320312 -8.878906 15.59375 -8.765625 C 15.863281 -8.660156 16.117188 -8.503906 16.359375 -8.296875 C 16.597656 -8.097656 16.679688 -7.929688 16.609375 -7.796875 C 15.816406 -6.253906 14.941406 -4.828125 13.984375 -3.515625 C 13.023438 -2.203125 11.878906 -1.1875 10.546875 -0.46875 C 9.222656 0.25 7.601562 0.515625 5.6875 0.328125 C 3.757812 0.109375 2.382812 -0.628906 1.5625 -1.890625 C 0.738281 -3.148438 0.335938 -4.789062 0.359375 -6.8125 C 0.390625 -8.84375 0.675781 -11.117188 1.21875 -13.640625 C 1.65625 -15.585938 2.222656 -17.453125 2.921875 -19.234375 C 3.628906 -21.023438 4.445312 -22.609375 5.375 -23.984375 C 6.3125 -25.367188 7.347656 -26.410156 8.484375 -27.109375 Z M 11.484375 -24.390625 C 10.992188 -24.421875 10.492188 -23.988281 9.984375 -23.09375 C 9.472656 -22.207031 8.945312 -21.085938 8.40625 -19.734375 C 8.082031 -18.804688 7.695312 -17.707031 7.25 -16.4375 C 6.800781 -15.164062 6.414062 -13.945312 6.09375 -12.78125 C 7.113281 -13.40625 8.070312 -14.3125 8.96875 -15.5 C 9.863281 -16.695312 10.554688 -17.875 11.046875 -19.03125 C 11.453125 -19.976562 11.738281 -20.859375 11.90625 -21.671875 C 12.082031 -22.484375 12.144531 -23.140625 12.09375 -23.640625 C 12.039062 -24.140625 11.835938 -24.390625 11.484375 -24.390625 Z M 11.484375 -24.390625 "/></g></g></g></g></g></g></g></g></svg>