<svg xmlns="http://www.w3.org/2000/svg" xmlns:xlink="http://www.w3.org/1999/xlink" width="500" zoomAndPan="magnify" viewBox="0 0 375 374.999991" height="500" preserveAspectRatio="xMidYMid meet" version="1.0"><defs><filter x="0%" y="0%" width="100%" height="100%" id="7b97dbf7ac"><feColorMatrix values="0 0 0 0 1 0 0 0 0 1 0 0 0 0 1 0 0 0 1 0" color-interpolation-filters="sRGB"/></filter><g/><clipPath id="9b8368f6ce"><path d="M 0.480469 21 L 113 21 L 113 256.601562 L 0.480469 256.601562 Z M 0.480469 21 " clip-rule="nonzero"/></clipPath><mask id="dd328b2d7f"><g filter="url(#7b97dbf7ac)"><rect x="-112.5" width="540" fill="#000000" y="-177.499998" height="539.999987" fill-opacity="0.85"/></g></mask><clipPath id="3d5aa5e8c8"><path d="M 0.480469 0.878906 L 112.078125 0.878906 L 112.078125 235.601562 L 0.480469 235.601562 Z M 0.480469 0.878906 " clip-rule="nonzero"/></clipPath><clipPath id="1872cc208c"><path d="M 0.480469 1 L 110 1 L 110 156 L 0.480469 156 Z M 0.480469 1 " clip-rule="nonzero"/></clipPath><clipPath id="fa7430f3fe"><rect x="0" width="113" y="0" height="236"/></clipPath><clipPath id="a1c52a0a95"><rect x="0" width="113" y="0" height="236"/></clipPath><clipPath id="1406917184"><path d="M 109 0.28125 L 198 0.28125 L 198 94 L 109 94 Z M 109 0.28125 " clip-rule="nonzero"/></clipPath><clipPath id="93c55a17ac"><rect x="0" width="89" y="0" height="94"/></clipPath><clipPath id="a04c7a9e26"><path d="M 109 92 L 320.398438 92 L 320.398438 186 L 109 186 Z M 109 92 " clip-rule="nonzero"/></clipPath><clipPath id="e6a99630b2"><rect x="0" width="212" y="0" height="94"/></clipPath><clipPath id="42f644b0a0"><rect x="0" width="321" y="0" height="257"/></clipPath></defs><g transform="matrix(1, 0, 0, 1, 30, 95)"><g clip-path="url(#42f644b0a0)"><g clip-path="url(#9b8368f6ce)"><g mask="url(#dd328b2d7f)"><g transform="matrix(1, 0, 0, 1, 0, 21)"><g clip-path="url(#a1c52a0a95)"><g clip-path="url(#3d5aa5e8c8)"><g transform="matrix(1, 0, 0, 1, 0, 0.000000000000014211)"><g clip-path="url(#fa7430f3fe)"><g clip-path="url(#1872cc208c)"><g fill="#000000" fill-opacity="1"><g transform="translate(0.605391, 142.489171)"><g><path d="M 32.875 12.6875 C 28.332031 12.6875 23.476562 11.351562 18.3125 8.6875 C 13.144531 6.03125 8.800781 2.550781 5.28125 -1.75 C 1.757812 -6.0625 0 -10.800781 0 -15.96875 C 0 -23.632812 1.289062 -29.738281 3.875 -34.28125 C 6.457031 -38.820312 9.625 -42.382812 13.375 -44.96875 C 17.132812 -47.550781 20.738281 -49.46875 24.1875 -50.71875 C 30.601562 -53.226562 36.117188 -54.640625 40.734375 -54.953125 C 45.359375 -55.265625 48.410156 -54.945312 49.890625 -54 C 51.378906 -53.0625 50.640625 -51.890625 47.671875 -50.484375 C 45.472656 -49.390625 42.613281 -47.664062 39.09375 -45.3125 C 35.570312 -42.96875 32.050781 -40.304688 28.53125 -37.328125 C 25.007812 -34.359375 22.035156 -31.226562 19.609375 -27.9375 C 17.179688 -24.65625 15.96875 -21.523438 15.96875 -18.546875 C 15.96875 -16.828125 16.710938 -15.5 18.203125 -14.5625 C 19.691406 -13.625 21.453125 -13.15625 23.484375 -13.15625 C 27.710938 -13.15625 32.523438 -14.207031 37.921875 -16.3125 C 43.328125 -18.425781 48.847656 -21.207031 54.484375 -24.65625 C 60.117188 -28.101562 65.285156 -31.78125 69.984375 -35.6875 C 74.679688 -39.601562 78.476562 -43.441406 81.375 -47.203125 C 84.269531 -50.960938 85.71875 -54.09375 85.71875 -56.59375 C 85.71875 -60.820312 83.835938 -63.5625 80.078125 -64.8125 C 76.316406 -66.0625 71.460938 -66.609375 65.515625 -66.453125 C 59.566406 -66.296875 53.382812 -66.21875 46.96875 -66.21875 C 38.351562 -66.21875 31.109375 -68.523438 25.234375 -73.140625 C 19.367188 -77.765625 16.4375 -84.144531 16.4375 -92.28125 C 16.4375 -99.488281 18.390625 -106.066406 22.296875 -112.015625 C 26.210938 -117.960938 31.222656 -123.085938 37.328125 -127.390625 C 43.441406 -131.703125 49.898438 -135.03125 56.703125 -137.375 C 63.515625 -139.71875 69.816406 -140.890625 75.609375 -140.890625 C 80.148438 -140.890625 84.570312 -139.675781 88.875 -137.25 C 93.1875 -134.832031 96.789062 -131.976562 99.6875 -128.6875 C 102.582031 -125.394531 104.03125 -122.578125 104.03125 -120.234375 C 104.03125 -118.191406 102.972656 -117.289062 100.859375 -117.53125 C 98.742188 -117.769531 96.828125 -117.890625 95.109375 -117.890625 C 91.503906 -117.890625 87.15625 -117.378906 82.0625 -116.359375 C 76.976562 -115.335938 71.773438 -113.96875 66.453125 -112.25 C 61.128906 -110.53125 56.160156 -108.570312 51.546875 -106.375 C 46.929688 -104.1875 43.171875 -101.878906 40.265625 -99.453125 C 37.367188 -97.023438 35.921875 -94.632812 35.921875 -92.28125 C 35.921875 -90.40625 37.289062 -89.078125 40.03125 -88.296875 C 42.769531 -87.515625 46.289062 -87.082031 50.59375 -87 C 54.90625 -86.925781 59.410156 -86.890625 64.109375 -86.890625 C 68.804688 -86.890625 73.03125 -86.65625 76.78125 -86.1875 C 83.832031 -85.40625 89.742188 -83.210938 94.515625 -79.609375 C 99.296875 -76.003906 102.859375 -71.929688 105.203125 -67.390625 C 107.546875 -62.847656 108.71875 -58.625 108.71875 -54.71875 C 108.71875 -50.800781 107.503906 -45.945312 105.078125 -40.15625 C 102.660156 -34.363281 99.179688 -28.414062 94.640625 -22.3125 C 90.097656 -16.207031 84.695312 -10.492188 78.4375 -5.171875 C 72.175781 0.148438 65.207031 4.457031 57.53125 7.75 C 49.863281 11.039062 41.644531 12.6875 32.875 12.6875 Z M 32.875 12.6875 "/></g></g></g></g></g></g></g></g></g></g></g><g clip-path="url(#1406917184)"><g transform="matrix(1, 0, 0, 1, 109, 0)"><g clip-path="url(#93c55a17ac)"><g fill="#545454" fill-opacity="1"><g transform="translate(2.680298, 69.651905)"><g><path d="M 19.59375 -32.984375 C 21.414062 -33.296875 23.453125 -33.359375 25.703125 -33.171875 C 27.960938 -32.992188 30.164062 -32.523438 32.3125 -31.765625 C 34.46875 -31.015625 36.296875 -29.863281 37.796875 -28.3125 C 38.054688 -27.84375 37.941406 -27.179688 37.453125 -26.328125 C 36.960938 -25.472656 36.351562 -24.742188 35.625 -24.140625 C 34.894531 -23.546875 34.296875 -23.328125 33.828125 -23.484375 C 32.222656 -24.734375 30.394531 -25.640625 28.34375 -26.203125 C 26.300781 -26.773438 24.347656 -26.957031 22.484375 -26.75 C 20.203125 -26.550781 18.046875 -25.539062 16.015625 -23.71875 C 13.992188 -21.90625 12.441406 -19.675781 11.359375 -17.03125 C 10.265625 -14.644531 9.648438 -12.441406 9.515625 -10.421875 C 9.390625 -8.398438 9.691406 -7.023438 10.421875 -6.296875 C 11.359375 -5.421875 12.4375 -5.382812 13.65625 -6.1875 C 14.875 -6.988281 16.117188 -8.320312 17.390625 -10.1875 C 18.660156 -12.050781 19.8125 -14.125 20.84375 -16.40625 C 21.882812 -18.6875 22.710938 -20.84375 23.328125 -22.875 C 23.796875 -23.332031 24.484375 -23.585938 25.390625 -23.640625 C 26.296875 -23.691406 27.253906 -23.597656 28.265625 -23.359375 C 29.285156 -23.128906 30.15625 -22.804688 30.875 -22.390625 C 31.601562 -21.984375 32.046875 -21.570312 32.203125 -21.15625 C 31.835938 -19.914062 31.40625 -18.425781 30.90625 -16.6875 C 30.414062 -14.945312 29.992188 -13.222656 29.640625 -11.515625 C 28.753906 -7.617188 29.191406 -5.671875 30.953125 -5.671875 C 31.835938 -5.722656 32.925781 -6.226562 34.21875 -7.1875 C 35.519531 -8.15625 36.816406 -9.453125 38.109375 -11.078125 C 39.410156 -12.710938 40.5 -14.539062 41.375 -16.5625 C 41.53125 -16.925781 41.894531 -17.015625 42.46875 -16.828125 C 43.039062 -16.648438 43.546875 -16.367188 43.984375 -15.984375 C 44.421875 -15.597656 44.5625 -15.25 44.40625 -14.9375 C 42.957031 -12.082031 41.300781 -9.488281 39.4375 -7.15625 C 37.570312 -4.820312 35.535156 -2.96875 33.328125 -1.59375 C 31.128906 -0.21875 28.757812 0.46875 26.21875 0.46875 C 24.289062 0.46875 22.875 -0.375 21.96875 -2.0625 C 21.0625 -3.75 20.816406 -6.015625 21.234375 -8.859375 C 20.347656 -7.359375 19.347656 -5.878906 18.234375 -4.421875 C 17.117188 -2.972656 15.785156 -1.78125 14.234375 -0.84375 C 12.679688 0.0820312 10.789062 0.570312 8.5625 0.625 C 6.789062 0.675781 5.128906 0.300781 3.578125 -0.5 C 2.023438 -1.3125 0.832031 -2.648438 0 -4.515625 C -0.832031 -6.378906 -1.015625 -8.867188 -0.546875 -11.984375 C -0.128906 -14.773438 0.738281 -17.375 2.0625 -19.78125 C 3.382812 -22.195312 5.003906 -24.328125 6.921875 -26.171875 C 8.835938 -28.015625 10.894531 -29.519531 13.09375 -30.6875 C 15.300781 -31.851562 17.46875 -32.617188 19.59375 -32.984375 Z M 19.59375 -32.984375 "/></g></g></g><g fill="#545454" fill-opacity="1"><g transform="translate(43.361275, 69.651905)"><g><path d="M 8.015625 23.015625 C 5.160156 23.066406 2.847656 22.351562 1.078125 20.875 C -0.679688 19.40625 -1.378906 17.320312 -1.015625 14.625 C -0.648438 11.925781 0.410156 9.785156 2.171875 8.203125 C 3.941406 6.617188 6.09375 5.359375 8.625 4.421875 C 11.164062 3.492188 13.785156 2.664062 16.484375 1.9375 C 16.953125 0.75 17.457031 -0.671875 18 -2.328125 C 18.550781 -3.992188 19.109375 -5.785156 19.671875 -7.703125 C 17.441406 -4.429688 15.109375 -2.195312 12.671875 -1 C 10.234375 0.1875 7.976562 0.726562 5.90625 0.625 C 3.46875 0.519531 1.675781 -0.0703125 0.53125 -1.15625 C -0.601562 -2.25 -1.234375 -3.648438 -1.359375 -5.359375 C -1.492188 -7.078125 -1.328125 -8.894531 -0.859375 -10.8125 C 0.0234375 -14.4375 1.023438 -18.0625 2.140625 -21.6875 C 3.253906 -25.320312 4.226562 -28.800781 5.0625 -32.125 C 5.363281 -32.59375 5.992188 -32.90625 6.953125 -33.0625 C 7.921875 -33.21875 8.972656 -33.253906 10.109375 -33.171875 C 11.253906 -33.097656 12.265625 -32.890625 13.140625 -32.546875 C 14.023438 -32.210938 14.519531 -31.734375 14.625 -31.109375 C 13.84375 -28.203125 13.023438 -25.085938 12.171875 -21.765625 C 11.316406 -18.453125 10.5 -15.164062 9.71875 -11.90625 C 9.300781 -10.132812 9.09375 -8.648438 9.09375 -7.453125 C 9.09375 -6.265625 9.664062 -5.695312 10.8125 -5.75 C 11.851562 -5.851562 12.941406 -6.4375 14.078125 -7.5 C 15.222656 -8.5625 16.3125 -9.9375 17.34375 -11.625 C 18.382812 -13.3125 19.265625 -15.0625 19.984375 -16.875 C 20.921875 -19.3125 21.789062 -21.878906 22.59375 -24.578125 C 23.394531 -27.273438 24.109375 -29.816406 24.734375 -32.203125 C 25.148438 -32.722656 25.847656 -33.046875 26.828125 -33.171875 C 27.816406 -33.304688 28.878906 -33.296875 30.015625 -33.140625 C 31.160156 -32.984375 32.160156 -32.722656 33.015625 -32.359375 C 33.867188 -31.992188 34.347656 -31.523438 34.453125 -30.953125 C 33.265625 -26.648438 32.203125 -22.835938 31.265625 -19.515625 C 30.335938 -16.203125 29.46875 -13.066406 28.65625 -10.109375 C 27.851562 -7.148438 27.015625 -4.066406 26.140625 -0.859375 C 28.929688 -2.046875 31.414062 -3.882812 33.59375 -6.375 C 35.78125 -8.863281 37.9375 -12.285156 40.0625 -16.640625 C 40.21875 -16.953125 40.566406 -17.015625 41.109375 -16.828125 C 41.648438 -16.648438 42.140625 -16.367188 42.578125 -15.984375 C 43.023438 -15.597656 43.171875 -15.25 43.015625 -14.9375 C 41.203125 -11.25 39.382812 -8.160156 37.5625 -5.671875 C 35.75 -3.179688 33.816406 -1.148438 31.765625 0.421875 C 29.722656 2.003906 27.378906 3.367188 24.734375 4.515625 C 23.390625 9.128906 22.03125 12.796875 20.65625 15.515625 C 19.28125 18.234375 17.617188 20.160156 15.671875 21.296875 C 13.722656 22.441406 11.171875 23.015625 8.015625 23.015625 Z M 9.484375 16.640625 C 10.210938 16.484375 10.976562 16.039062 11.78125 15.3125 C 12.582031 14.59375 13.269531 13.457031 13.84375 11.90625 C 14.101562 11.175781 14.335938 10.421875 14.546875 9.640625 C 14.753906 8.867188 14.960938 8.09375 15.171875 7.3125 C 13.765625 7.832031 12.460938 8.476562 11.265625 9.25 C 10.078125 10.03125 9.148438 10.835938 8.484375 11.671875 C 7.492188 12.804688 7.0625 13.96875 7.1875 15.15625 C 7.320312 16.351562 8.085938 16.847656 9.484375 16.640625 Z M 9.484375 16.640625 "/></g></g></g></g></g></g><g clip-path="url(#a04c7a9e26)"><g transform="matrix(1, 0, 0, 1, 109, 92)"><g clip-path="url(#e6a99630b2)"><g fill="#545454" fill-opacity="1"><g transform="translate(2.680298, 69.970103)"><g><path d="M 19.59375 -32.984375 C 21.414062 -33.296875 23.453125 -33.359375 25.703125 -33.171875 C 27.960938 -32.992188 30.164062 -32.523438 32.3125 -31.765625 C 34.46875 -31.015625 36.296875 -29.863281 37.796875 -28.3125 C 38.054688 -27.84375 37.941406 -27.179688 37.453125 -26.328125 C 36.960938 -25.472656 36.351562 -24.742188 35.625 -24.140625 C 34.894531 -23.546875 34.296875 -23.328125 33.828125 -23.484375 C 32.222656 -24.734375 30.394531 -25.640625 28.34375 -26.203125 C 26.300781 -26.773438 24.347656 -26.957031 22.484375 -26.75 C 20.203125 -26.550781 18.046875 -25.539062 16.015625 -23.71875 C 13.992188 -21.90625 12.441406 -19.675781 11.359375 -17.03125 C 10.265625 -14.644531 9.648438 -12.441406 9.515625 -10.421875 C 9.390625 -8.398438 9.691406 -7.023438 10.421875 -6.296875 C 11.359375 -5.421875 12.4375 -5.382812 13.65625 -6.1875 C 14.875 -6.988281 16.117188 -8.320312 17.390625 -10.1875 C 18.660156 -12.050781 19.8125 -14.125 20.84375 -16.40625 C 21.882812 -18.6875 22.710938 -20.84375 23.328125 -22.875 C 23.796875 -23.332031 24.484375 -23.585938 25.390625 -23.640625 C 26.296875 -23.691406 27.253906 -23.597656 28.265625 -23.359375 C 29.285156 -23.128906 30.15625 -22.804688 30.875 -22.390625 C 31.601562 -21.984375 32.046875 -21.570312 32.203125 -21.15625 C 31.835938 -19.914062 31.40625 -18.425781 30.90625 -16.6875 C 30.414062 -14.945312 29.992188 -13.222656 29.640625 -11.515625 C 28.753906 -7.617188 29.191406 -5.671875 30.953125 -5.671875 C 31.835938 -5.722656 32.925781 -6.226562 34.21875 -7.1875 C 35.519531 -8.15625 36.816406 -9.453125 38.109375 -11.078125 C 39.410156 -12.710938 40.5 -14.539062 41.375 -16.5625 C 41.53125 -16.925781 41.894531 -17.015625 42.46875 -16.828125 C 43.039062 -16.648438 43.546875 -16.367188 43.984375 -15.984375 C 44.421875 -15.597656 44.5625 -15.25 44.40625 -14.9375 C 42.957031 -12.082031 41.300781 -9.488281 39.4375 -7.15625 C 37.570312 -4.820312 35.535156 -2.96875 33.328125 -1.59375 C 31.128906 -0.21875 28.757812 0.46875 26.21875 0.46875 C 24.289062 0.46875 22.875 -0.375 21.96875 -2.0625 C 21.0625 -3.75 20.816406 -6.015625 21.234375 -8.859375 C 20.347656 -7.359375 19.347656 -5.878906 18.234375 -4.421875 C 17.117188 -2.972656 15.785156 -1.78125 14.234375 -0.84375 C 12.679688 0.0820312 10.789062 0.570312 8.5625 0.625 C 6.789062 0.675781 5.128906 0.300781 3.578125 -0.5 C 2.023438 -1.3125 0.832031 -2.648438 0 -4.515625 C -0.832031 -6.378906 -1.015625 -8.867188 -0.546875 -11.984375 C -0.128906 -14.773438 0.738281 -17.375 2.0625 -19.78125 C 3.382812 -22.195312 5.003906 -24.328125 6.921875 -26.171875 C 8.835938 -28.015625 10.894531 -29.519531 13.09375 -30.6875 C 15.300781 -31.851562 17.46875 -32.617188 19.59375 -32.984375 Z M 19.59375 -32.984375 "/></g></g></g><g fill="#545454" fill-opacity="1"><g transform="translate(43.361275, 69.970103)"><g><path d="M 16.25 -51.953125 C 18.28125 -53.203125 20.304688 -53.800781 22.328125 -53.75 C 24.347656 -53.695312 26.144531 -53.085938 27.71875 -51.921875 C 29.300781 -50.753906 30.40625 -49.09375 31.03125 -46.9375 C 31.65625 -44.789062 31.578125 -42.1875 30.796875 -39.125 C 29.609375 -34.457031 27.273438 -30.304688 23.796875 -26.671875 C 20.328125 -23.046875 15.867188 -20.300781 10.421875 -18.4375 C 9.585938 -14.644531 9.484375 -11.554688 10.109375 -9.171875 C 10.734375 -6.785156 12.316406 -5.515625 14.859375 -5.359375 C 17.242188 -5.210938 19.71875 -6.148438 22.28125 -8.171875 C 24.851562 -10.191406 27.046875 -13.015625 28.859375 -16.640625 C 29.015625 -16.953125 29.347656 -17.003906 29.859375 -16.796875 C 30.378906 -16.585938 30.875 -16.289062 31.34375 -15.90625 C 31.8125 -15.519531 31.96875 -15.195312 31.8125 -14.9375 C 30.3125 -11.976562 28.640625 -9.238281 26.796875 -6.71875 C 24.953125 -4.207031 22.757812 -2.265625 20.21875 -0.890625 C 17.675781 0.484375 14.566406 0.988281 10.890625 0.625 C 7.203125 0.207031 4.566406 -1.203125 2.984375 -3.609375 C 1.410156 -6.023438 0.648438 -9.175781 0.703125 -13.0625 C 0.753906 -16.957031 1.296875 -21.316406 2.328125 -26.140625 C 3.160156 -29.867188 4.25 -33.441406 5.59375 -36.859375 C 6.945312 -40.285156 8.515625 -43.320312 10.296875 -45.96875 C 12.085938 -48.613281 14.070312 -50.609375 16.25 -51.953125 Z M 22.015625 -46.75 C 21.078125 -46.800781 20.113281 -45.96875 19.125 -44.25 C 18.144531 -42.539062 17.132812 -40.390625 16.09375 -37.796875 C 15.476562 -36.035156 14.738281 -33.9375 13.875 -31.5 C 13.019531 -29.0625 12.285156 -26.726562 11.671875 -24.5 C 13.640625 -25.695312 15.476562 -27.4375 17.1875 -29.71875 C 18.894531 -32 20.21875 -34.253906 21.15625 -36.484375 C 21.9375 -38.296875 22.492188 -39.976562 22.828125 -41.53125 C 23.160156 -43.09375 23.273438 -44.351562 23.171875 -45.3125 C 23.066406 -46.269531 22.679688 -46.75 22.015625 -46.75 Z M 22.015625 -46.75 "/></g></g></g><g fill="#545454" fill-opacity="1"><g transform="translate(71.441255, 69.970103)"><g><path d="M 19.59375 -32.984375 C 21.414062 -33.296875 23.453125 -33.359375 25.703125 -33.171875 C 27.960938 -32.992188 30.164062 -32.523438 32.3125 -31.765625 C 34.46875 -31.015625 36.296875 -29.863281 37.796875 -28.3125 C 38.054688 -27.84375 37.941406 -27.179688 37.453125 -26.328125 C 36.960938 -25.472656 36.351562 -24.742188 35.625 -24.140625 C 34.894531 -23.546875 34.296875 -23.328125 33.828125 -23.484375 C 32.222656 -24.734375 30.394531 -25.640625 28.34375 -26.203125 C 26.300781 -26.773438 24.347656 -26.957031 22.484375 -26.75 C 20.203125 -26.550781 18.046875 -25.539062 16.015625 -23.71875 C 13.992188 -21.90625 12.441406 -19.675781 11.359375 -17.03125 C 10.265625 -14.644531 9.648438 -12.441406 9.515625 -10.421875 C 9.390625 -8.398438 9.691406 -7.023438 10.421875 -6.296875 C 11.359375 -5.421875 12.4375 -5.382812 13.65625 -6.1875 C 14.875 -6.988281 16.117188 -8.320312 17.390625 -10.1875 C 18.660156 -12.050781 19.8125 -14.125 20.84375 -16.40625 C 21.882812 -18.6875 22.710938 -20.84375 23.328125 -22.875 C 23.796875 -23.332031 24.484375 -23.585938 25.390625 -23.640625 C 26.296875 -23.691406 27.253906 -23.597656 28.265625 -23.359375 C 29.285156 -23.128906 30.15625 -22.804688 30.875 -22.390625 C 31.601562 -21.984375 32.046875 -21.570312 32.203125 -21.15625 C 31.835938 -19.914062 31.40625 -18.425781 30.90625 -16.6875 C 30.414062 -14.945312 29.992188 -13.222656 29.640625 -11.515625 C 28.753906 -7.617188 29.191406 -5.671875 30.953125 -5.671875 C 31.835938 -5.722656 32.925781 -6.226562 34.21875 -7.1875 C 35.519531 -8.15625 36.816406 -9.453125 38.109375 -11.078125 C 39.410156 -12.710938 40.5 -14.539062 41.375 -16.5625 C 41.53125 -16.925781 41.894531 -17.015625 42.46875 -16.828125 C 43.039062 -16.648438 43.546875 -16.367188 43.984375 -15.984375 C 44.421875 -15.597656 44.5625 -15.25 44.40625 -14.9375 C 42.957031 -12.082031 41.300781 -9.488281 39.4375 -7.15625 C 37.570312 -4.820312 35.535156 -2.96875 33.328125 -1.59375 C 31.128906 -0.21875 28.757812 0.46875 26.21875 0.46875 C 24.289062 0.46875 22.875 -0.375 21.96875 -2.0625 C 21.0625 -3.75 20.816406 -6.015625 21.234375 -8.859375 C 20.347656 -7.359375 19.347656 -5.878906 18.234375 -4.421875 C 17.117188 -2.972656 15.785156 -1.78125 14.234375 -0.84375 C 12.679688 0.0820312 10.789062 0.570312 8.5625 0.625 C 6.789062 0.675781 5.128906 0.300781 3.578125 -0.5 C 2.023438 -1.3125 0.832031 -2.648438 0 -4.515625 C -0.832031 -6.378906 -1.015625 -8.867188 -0.546875 -11.984375 C -0.128906 -14.773438 0.738281 -17.375 2.0625 -19.78125 C 3.382812 -22.195312 5.003906 -24.328125 6.921875 -26.171875 C 8.835938 -28.015625 10.894531 -29.519531 13.09375 -30.6875 C 15.300781 -31.851562 17.46875 -32.617188 19.59375 -32.984375 Z M 19.59375 -32.984375 "/></g></g></g><g fill="#545454" fill-opacity="1"><g transform="translate(112.122232, 69.970103)"><g><path d="M 43.953125 0.703125 C 40.472656 0.804688 38.1875 0.00390625 37.09375 -1.703125 C 36.007812 -3.421875 35.753906 -5.707031 36.328125 -8.5625 C 36.535156 -9.488281 36.832031 -10.753906 37.21875 -12.359375 C 37.601562 -13.972656 38.015625 -15.632812 38.453125 -17.34375 C 38.898438 -19.050781 39.28125 -20.53125 39.59375 -21.78125 C 39.851562 -22.8125 39.929688 -23.78125 39.828125 -24.6875 C 39.722656 -25.601562 39.097656 -26.035156 37.953125 -25.984375 C 36.816406 -25.929688 35.519531 -25.242188 34.0625 -23.921875 C 32.613281 -22.597656 31.445312 -21.179688 30.5625 -19.671875 C 30.101562 -17.960938 29.597656 -15.96875 29.046875 -13.6875 C 28.503906 -11.40625 27.957031 -9.125 27.40625 -6.84375 C 26.863281 -4.5625 26.390625 -2.566406 25.984375 -0.859375 C 25.722656 -0.390625 25.085938 -0.0390625 24.078125 0.1875 C 23.066406 0.425781 21.9375 0.546875 20.6875 0.546875 C 19.445312 0.546875 18.34375 0.414062 17.375 0.15625 C 16.414062 -0.101562 15.863281 -0.546875 15.71875 -1.171875 C 16.488281 -4.585938 17.289062 -7.992188 18.125 -11.390625 C 18.957031 -14.785156 19.863281 -18.40625 20.84375 -22.25 C 21.050781 -23.125 21.085938 -23.953125 20.953125 -24.734375 C 20.828125 -25.515625 20.273438 -25.878906 19.296875 -25.828125 C 18.253906 -25.773438 17.03125 -25.148438 15.625 -23.953125 C 14.226562 -22.765625 12.9375 -21.3125 11.75 -19.59375 C 10.8125 -16.332031 9.96875 -13.207031 9.21875 -10.21875 C 8.46875 -7.238281 7.726562 -4.117188 7 -0.859375 C 6.789062 -0.390625 6.140625 -0.0390625 5.046875 0.1875 C 3.960938 0.425781 2.769531 0.53125 1.46875 0.5 C 0.175781 0.476562 -0.945312 0.300781 -1.90625 -0.03125 C -2.863281 -0.375 -3.34375 -0.910156 -3.34375 -1.640625 C -2 -6.765625 -0.65625 -11.789062 0.6875 -16.71875 C 2.039062 -21.644531 3.523438 -26.859375 5.140625 -32.359375 C 5.546875 -32.773438 6.226562 -33.0625 7.1875 -33.21875 C 8.15625 -33.375 9.179688 -33.382812 10.265625 -33.25 C 11.359375 -33.125 12.332031 -32.878906 13.1875 -32.515625 C 14.039062 -32.148438 14.570312 -31.65625 14.78125 -31.03125 C 14.519531 -30.257812 14.257812 -29.40625 14 -28.46875 C 13.738281 -27.53125 13.476562 -26.703125 13.21875 -25.984375 C 14.207031 -27.066406 15.375 -28.164062 16.71875 -29.28125 C 18.070312 -30.394531 19.523438 -31.328125 21.078125 -32.078125 C 22.628906 -32.835938 24.132812 -33.21875 25.59375 -33.21875 C 27.613281 -33.21875 29.140625 -32.609375 30.171875 -31.390625 C 31.210938 -30.171875 31.601562 -28.5 31.34375 -26.375 C 32.84375 -28.082031 34.671875 -29.648438 36.828125 -31.078125 C 38.984375 -32.503906 41.28125 -33.21875 43.71875 -33.21875 C 46.925781 -33.21875 49.007812 -32.28125 49.96875 -30.40625 C 50.925781 -28.539062 51.019531 -26.054688 50.25 -22.953125 C 49.988281 -21.804688 49.625 -20.476562 49.15625 -18.96875 C 48.6875 -17.46875 48.21875 -15.925781 47.75 -14.34375 C 47.289062 -12.769531 46.941406 -11.304688 46.703125 -9.953125 C 46.472656 -8.609375 46.4375 -7.53125 46.59375 -6.71875 C 46.75 -5.914062 47.238281 -5.515625 48.0625 -5.515625 C 48.894531 -5.515625 49.894531 -5.992188 51.0625 -6.953125 C 52.226562 -7.921875 53.429688 -9.242188 54.671875 -10.921875 C 55.921875 -12.609375 57.015625 -14.515625 57.953125 -16.640625 C 58.109375 -17.003906 58.457031 -17.082031 59 -16.875 C 59.539062 -16.664062 60.03125 -16.367188 60.46875 -15.984375 C 60.914062 -15.597656 61.0625 -15.25 60.90625 -14.9375 C 60.070312 -13.320312 59.097656 -11.617188 57.984375 -9.828125 C 56.867188 -8.046875 55.609375 -6.375 54.203125 -4.8125 C 52.804688 -3.257812 51.253906 -1.976562 49.546875 -0.96875 C 47.835938 0.0390625 45.972656 0.597656 43.953125 0.703125 Z M 43.953125 0.703125 "/></g></g></g><g fill="#545454" fill-opacity="1"><g transform="translate(169.293396, 69.970103)"><g><path d="M 12.984375 0.9375 C 11.585938 0.9375 10.175781 0.648438 8.75 0.078125 C 7.320312 -0.492188 6.101562 -1.390625 5.09375 -2.609375 C 4.082031 -3.828125 3.472656 -5.367188 3.265625 -7.234375 C 3.472656 -8.015625 3.9375 -8.648438 4.65625 -9.140625 C 5.382812 -9.628906 6.164062 -9.9375 7 -10.0625 C 7.832031 -10.195312 8.476562 -10.109375 8.9375 -9.796875 C 8.882812 -8.554688 9.222656 -7.503906 9.953125 -6.640625 C 10.679688 -5.785156 11.613281 -5.359375 12.75 -5.359375 C 14.050781 -5.359375 15.066406 -5.828125 15.796875 -6.765625 C 15.117188 -7.390625 14.753906 -8.113281 14.703125 -8.9375 C 14.648438 -9.769531 14.84375 -10.523438 15.28125 -11.203125 C 15.71875 -11.878906 16.328125 -12.242188 17.109375 -12.296875 C 17.054688 -15.140625 16.585938 -18.015625 15.703125 -20.921875 C 14.828125 -23.828125 14.179688 -26.757812 13.765625 -29.71875 C 12.523438 -28.46875 11.21875 -26.859375 9.84375 -24.890625 C 8.46875 -22.921875 7.144531 -20.847656 5.875 -18.671875 C 4.601562 -16.492188 3.5 -14.46875 2.5625 -12.59375 C 2.351562 -12.238281 1.960938 -12.125 1.390625 -12.25 C 0.828125 -12.375 0.335938 -12.644531 -0.078125 -13.0625 C -0.492188 -13.476562 -0.625 -13.867188 -0.46875 -14.234375 C 0.570312 -16.359375 1.765625 -18.585938 3.109375 -20.921875 C 4.460938 -23.253906 5.925781 -25.507812 7.5 -27.6875 C 9.082031 -29.863281 10.726562 -31.785156 12.4375 -33.453125 C 14 -34.953125 15.632812 -35.9375 17.34375 -36.40625 C 19.050781 -36.875 20.550781 -36.910156 21.84375 -36.515625 C 23.144531 -36.128906 23.988281 -35.40625 24.375 -34.34375 C 24.769531 -33.28125 24.367188 -31.941406 23.171875 -30.328125 C 23.796875 -27.171875 24.484375 -24.359375 25.234375 -21.890625 C 25.992188 -19.429688 26.578125 -17.097656 26.984375 -14.890625 C 27.398438 -12.691406 27.320312 -10.347656 26.75 -7.859375 C 28.414062 -7.960938 30.15625 -8.660156 31.96875 -9.953125 C 33.78125 -11.253906 35.414062 -13.484375 36.875 -16.640625 C 37.03125 -16.953125 37.378906 -17.003906 37.921875 -16.796875 C 38.460938 -16.585938 38.953125 -16.289062 39.390625 -15.90625 C 39.835938 -15.519531 40.007812 -15.195312 39.90625 -14.9375 C 37.832031 -10.582031 35.484375 -7.648438 32.859375 -6.140625 C 30.242188 -4.640625 27.585938 -3.914062 24.890625 -3.96875 C 23.742188 -2.363281 22.117188 -1.144531 20.015625 -0.3125 C 17.921875 0.519531 15.578125 0.9375 12.984375 0.9375 Z M 12.984375 0.9375 "/></g></g></g></g></g></g></g></g></svg>