<svg xmlns="http://www.w3.org/2000/svg" xmlns:xlink="http://www.w3.org/1999/xlink" width="320" zoomAndPan="magnify" viewBox="0 0 135 134.999994" height="320" preserveAspectRatio="xMidYMid meet" version="1.0"><defs><filter x="0%" y="0%" width="100%" height="100%" id="efb81c7d5f"><feColorMatrix values="0 0 0 0 1 0 0 0 0 1 0 0 0 0 1 0 0 0 1 0" color-interpolation-filters="sRGB"/></filter><g/><clipPath id="c773912757"><path d="M 0.921875 4 L 21 4 L 21 40 L 0.921875 40 Z M 0.921875 4 " clip-rule="nonzero"/></clipPath><mask id="3828c85a96"><g filter="url(#efb81c7d5f)"><rect x="-108.7" width="194.4" fill="#000000" y="-124.699999" height="194.399991" fill-opacity="0.85"/></g></mask><clipPath id="c15f8d2d6c"><path d="M 1 0.601562 L 20 0.601562 L 20 28 L 1 28 Z M 1 0.601562 " clip-rule="nonzero"/></clipPath><clipPath id="89cb7e5e64"><rect x="0" width="21" y="0" height="36"/></clipPath><clipPath id="23db7da58a"><rect x="0" width="37" y="0" height="17"/></clipPath><clipPath id="684d4dfa48"><rect x="0" width="56" y="0" height="40"/></clipPath></defs><g transform="matrix(1, 0, 0, 1, 79, 95)"><g clip-path="url(#684d4dfa48)"><g clip-path="url(#c773912757)"><g mask="url(#3828c85a96)"><g transform="matrix(1, 0, 0, 1, 0, 4)"><g clip-path="url(#89cb7e5e64)"><g clip-path="url(#c15f8d2d6c)"><g fill="#6e5084" fill-opacity="1"><g transform="translate(1.120563, 24.978703)"><g><path d="M 5.65625 2.1875 C 4.875 2.1875 4.035156 1.957031 3.140625 1.5 C 2.253906 1.039062 1.507812 0.441406 0.90625 -0.296875 C 0.300781 -1.046875 0 -1.863281 0 -2.75 C 0 -4.070312 0.21875 -5.125 0.65625 -5.90625 C 1.101562 -6.6875 1.648438 -7.296875 2.296875 -7.734375 C 2.953125 -8.179688 3.570312 -8.515625 4.15625 -8.734375 C 5.269531 -9.160156 6.222656 -9.398438 7.015625 -9.453125 C 7.804688 -9.515625 8.328125 -9.460938 8.578125 -9.296875 C 8.835938 -9.128906 8.710938 -8.925781 8.203125 -8.6875 C 7.828125 -8.5 7.335938 -8.203125 6.734375 -7.796875 C 6.128906 -7.390625 5.519531 -6.929688 4.90625 -6.421875 C 4.300781 -5.910156 3.789062 -5.375 3.375 -4.8125 C 2.957031 -4.25 2.75 -3.707031 2.75 -3.1875 C 2.75 -2.894531 2.875 -2.664062 3.125 -2.5 C 3.382812 -2.34375 3.691406 -2.265625 4.046875 -2.265625 C 4.773438 -2.265625 5.601562 -2.445312 6.53125 -2.8125 C 7.457031 -3.175781 8.40625 -3.65625 9.375 -4.25 C 10.34375 -4.84375 11.234375 -5.472656 12.046875 -6.140625 C 12.859375 -6.816406 13.507812 -7.476562 14 -8.125 C 14.5 -8.769531 14.75 -9.304688 14.75 -9.734375 C 14.75 -10.460938 14.425781 -10.9375 13.78125 -11.15625 C 13.132812 -11.375 12.296875 -11.46875 11.265625 -11.4375 C 10.242188 -11.414062 9.179688 -11.40625 8.078125 -11.40625 C 6.597656 -11.40625 5.351562 -11.800781 4.34375 -12.59375 C 3.332031 -13.382812 2.828125 -14.484375 2.828125 -15.890625 C 2.828125 -17.128906 3.160156 -18.257812 3.828125 -19.28125 C 4.503906 -20.300781 5.367188 -21.179688 6.421875 -21.921875 C 7.472656 -22.671875 8.582031 -23.242188 9.75 -23.640625 C 10.925781 -24.046875 12.015625 -24.25 13.015625 -24.25 C 13.796875 -24.25 14.554688 -24.039062 15.296875 -23.625 C 16.035156 -23.207031 16.65625 -22.710938 17.15625 -22.140625 C 17.65625 -21.578125 17.90625 -21.097656 17.90625 -20.703125 C 17.90625 -20.347656 17.722656 -20.191406 17.359375 -20.234375 C 16.992188 -20.273438 16.664062 -20.296875 16.375 -20.296875 C 15.75 -20.296875 15 -20.207031 14.125 -20.03125 C 13.25 -19.851562 12.351562 -19.613281 11.4375 -19.3125 C 10.519531 -19.019531 9.664062 -18.6875 8.875 -18.3125 C 8.082031 -17.9375 7.4375 -17.535156 6.9375 -17.109375 C 6.4375 -16.691406 6.1875 -16.285156 6.1875 -15.890625 C 6.1875 -15.566406 6.421875 -15.335938 6.890625 -15.203125 C 7.359375 -15.066406 7.960938 -14.988281 8.703125 -14.96875 C 9.453125 -14.957031 10.226562 -14.953125 11.03125 -14.953125 C 11.84375 -14.953125 12.570312 -14.910156 13.21875 -14.828125 C 14.425781 -14.691406 15.441406 -14.3125 16.265625 -13.6875 C 17.085938 -13.070312 17.703125 -12.375 18.109375 -11.59375 C 18.515625 -10.8125 18.71875 -10.085938 18.71875 -9.421875 C 18.71875 -8.742188 18.507812 -7.90625 18.09375 -6.90625 C 17.675781 -5.914062 17.078125 -4.894531 16.296875 -3.84375 C 15.515625 -2.789062 14.582031 -1.804688 13.5 -0.890625 C 12.425781 0.0234375 11.226562 0.765625 9.90625 1.328125 C 8.582031 1.898438 7.164062 2.1875 5.65625 2.1875 Z M 5.65625 2.1875 "/></g></g></g></g></g></g></g></g><g fill="#9b8bbd" fill-opacity="1"><g transform="translate(20.238515, 13.089116)"><g><path d="M 3.375 -5.671875 C 3.6875 -5.734375 4.035156 -5.75 4.421875 -5.71875 C 4.816406 -5.6875 5.195312 -5.601562 5.5625 -5.46875 C 5.9375 -5.34375 6.25 -5.144531 6.5 -4.875 C 6.550781 -4.789062 6.535156 -4.675781 6.453125 -4.53125 C 6.367188 -4.382812 6.265625 -4.257812 6.140625 -4.15625 C 6.015625 -4.050781 5.910156 -4.015625 5.828125 -4.046875 C 5.546875 -4.253906 5.226562 -4.40625 4.875 -4.5 C 4.53125 -4.601562 4.195312 -4.640625 3.875 -4.609375 C 3.476562 -4.566406 3.101562 -4.390625 2.75 -4.078125 C 2.40625 -3.765625 2.140625 -3.382812 1.953125 -2.9375 C 1.765625 -2.519531 1.660156 -2.132812 1.640625 -1.78125 C 1.617188 -1.4375 1.671875 -1.203125 1.796875 -1.078125 C 1.953125 -0.929688 2.132812 -0.925781 2.34375 -1.0625 C 2.5625 -1.195312 2.78125 -1.425781 3 -1.75 C 3.21875 -2.070312 3.414062 -2.429688 3.59375 -2.828125 C 3.769531 -3.222656 3.910156 -3.59375 4.015625 -3.9375 C 4.097656 -4.019531 4.21875 -4.0625 4.375 -4.0625 C 4.53125 -4.070312 4.691406 -4.054688 4.859375 -4.015625 C 5.035156 -3.984375 5.1875 -3.929688 5.3125 -3.859375 C 5.4375 -3.785156 5.515625 -3.710938 5.546875 -3.640625 C 5.484375 -3.429688 5.410156 -3.175781 5.328125 -2.875 C 5.242188 -2.570312 5.171875 -2.273438 5.109375 -1.984375 C 4.953125 -1.316406 5.023438 -0.984375 5.328125 -0.984375 C 5.484375 -0.984375 5.671875 -1.066406 5.890625 -1.234375 C 6.117188 -1.398438 6.34375 -1.625 6.5625 -1.90625 C 6.78125 -2.1875 6.96875 -2.503906 7.125 -2.859375 C 7.144531 -2.921875 7.203125 -2.9375 7.296875 -2.90625 C 7.398438 -2.875 7.488281 -2.820312 7.5625 -2.75 C 7.644531 -2.6875 7.671875 -2.628906 7.640625 -2.578125 C 7.390625 -2.078125 7.101562 -1.625 6.78125 -1.21875 C 6.46875 -0.820312 6.117188 -0.503906 5.734375 -0.265625 C 5.359375 -0.0351562 4.953125 0.078125 4.515625 0.078125 C 4.179688 0.078125 3.9375 -0.0664062 3.78125 -0.359375 C 3.625 -0.648438 3.582031 -1.039062 3.65625 -1.53125 C 3.5 -1.269531 3.328125 -1.015625 3.140625 -0.765625 C 2.953125 -0.515625 2.722656 -0.304688 2.453125 -0.140625 C 2.179688 0.015625 1.851562 0.0976562 1.46875 0.109375 C 1.164062 0.117188 0.878906 0.0546875 0.609375 -0.078125 C 0.347656 -0.222656 0.144531 -0.457031 0 -0.78125 C -0.144531 -1.101562 -0.175781 -1.53125 -0.09375 -2.0625 C -0.0195312 -2.539062 0.128906 -2.988281 0.359375 -3.40625 C 0.585938 -3.820312 0.863281 -4.1875 1.1875 -4.5 C 1.519531 -4.820312 1.875 -5.082031 2.25 -5.28125 C 2.632812 -5.476562 3.007812 -5.609375 3.375 -5.671875 Z M 3.375 -5.671875 "/></g></g></g><g fill="#9b8bbd" fill-opacity="1"><g transform="translate(27.23977, 13.089116)"><g><path d="M 1.375 3.96875 C 0.882812 3.976562 0.488281 3.851562 0.1875 3.59375 C -0.113281 3.34375 -0.234375 2.984375 -0.171875 2.515625 C -0.109375 2.054688 0.0703125 1.6875 0.375 1.40625 C 0.675781 1.132812 1.046875 0.914062 1.484375 0.75 C 1.921875 0.59375 2.375 0.453125 2.84375 0.328125 C 2.914062 0.128906 3 -0.109375 3.09375 -0.390625 C 3.1875 -0.679688 3.285156 -0.992188 3.390625 -1.328125 C 3.003906 -0.765625 2.597656 -0.378906 2.171875 -0.171875 C 1.753906 0.0351562 1.367188 0.128906 1.015625 0.109375 C 0.597656 0.0859375 0.289062 -0.015625 0.09375 -0.203125 C -0.101562 -0.390625 -0.210938 -0.628906 -0.234375 -0.921875 C -0.253906 -1.210938 -0.222656 -1.523438 -0.140625 -1.859375 C 0.00390625 -2.484375 0.171875 -3.109375 0.359375 -3.734375 C 0.554688 -4.359375 0.726562 -4.957031 0.875 -5.53125 C 0.925781 -5.613281 1.035156 -5.664062 1.203125 -5.6875 C 1.367188 -5.71875 1.546875 -5.722656 1.734375 -5.703125 C 1.929688 -5.691406 2.101562 -5.65625 2.25 -5.59375 C 2.40625 -5.539062 2.492188 -5.460938 2.515625 -5.359375 C 2.378906 -4.859375 2.238281 -4.320312 2.09375 -3.75 C 1.945312 -3.175781 1.804688 -2.609375 1.671875 -2.046875 C 1.597656 -1.742188 1.5625 -1.488281 1.5625 -1.28125 C 1.5625 -1.082031 1.660156 -0.984375 1.859375 -0.984375 C 2.035156 -1.003906 2.222656 -1.101562 2.421875 -1.28125 C 2.617188 -1.46875 2.804688 -1.707031 2.984375 -2 C 3.160156 -2.289062 3.3125 -2.59375 3.4375 -2.90625 C 3.601562 -3.320312 3.753906 -3.757812 3.890625 -4.21875 C 4.023438 -4.6875 4.148438 -5.128906 4.265625 -5.546875 C 4.328125 -5.628906 4.441406 -5.679688 4.609375 -5.703125 C 4.785156 -5.734375 4.972656 -5.734375 5.171875 -5.703125 C 5.367188 -5.679688 5.539062 -5.640625 5.6875 -5.578125 C 5.832031 -5.515625 5.914062 -5.429688 5.9375 -5.328125 C 5.726562 -4.585938 5.539062 -3.929688 5.375 -3.359375 C 5.21875 -2.785156 5.070312 -2.242188 4.9375 -1.734375 C 4.800781 -1.234375 4.65625 -0.703125 4.5 -0.140625 C 4.976562 -0.347656 5.40625 -0.664062 5.78125 -1.09375 C 6.15625 -1.519531 6.523438 -2.109375 6.890625 -2.859375 C 6.921875 -2.921875 6.984375 -2.9375 7.078125 -2.90625 C 7.171875 -2.875 7.253906 -2.820312 7.328125 -2.75 C 7.398438 -2.6875 7.425781 -2.628906 7.40625 -2.578125 C 7.09375 -1.941406 6.78125 -1.40625 6.46875 -0.96875 C 6.15625 -0.539062 5.820312 -0.191406 5.46875 0.078125 C 5.113281 0.347656 4.710938 0.582031 4.265625 0.78125 C 4.023438 1.570312 3.785156 2.203125 3.546875 2.671875 C 3.316406 3.140625 3.035156 3.472656 2.703125 3.671875 C 2.367188 3.867188 1.925781 3.96875 1.375 3.96875 Z M 1.640625 2.859375 C 1.765625 2.835938 1.894531 2.765625 2.03125 2.640625 C 2.164062 2.515625 2.285156 2.316406 2.390625 2.046875 C 2.429688 1.921875 2.46875 1.789062 2.5 1.65625 C 2.539062 1.519531 2.578125 1.390625 2.609375 1.265625 C 2.367188 1.347656 2.144531 1.457031 1.9375 1.59375 C 1.738281 1.726562 1.578125 1.867188 1.453125 2.015625 C 1.285156 2.203125 1.210938 2.398438 1.234375 2.609375 C 1.253906 2.816406 1.390625 2.898438 1.640625 2.859375 Z M 1.640625 2.859375 "/></g></g></g><g transform="matrix(1, 0, 0, 1, 19, 16)"><g clip-path="url(#23db7da58a)"><g fill="#9b8bbd" fill-opacity="1"><g transform="translate(1.238508, 12.423421)"><g><path d="M 3.375 -5.671875 C 3.6875 -5.734375 4.035156 -5.75 4.421875 -5.71875 C 4.816406 -5.6875 5.195312 -5.601562 5.5625 -5.46875 C 5.9375 -5.34375 6.25 -5.144531 6.5 -4.875 C 6.550781 -4.789062 6.535156 -4.675781 6.453125 -4.53125 C 6.367188 -4.382812 6.265625 -4.257812 6.140625 -4.15625 C 6.015625 -4.050781 5.910156 -4.015625 5.828125 -4.046875 C 5.546875 -4.253906 5.226562 -4.40625 4.875 -4.5 C 4.53125 -4.601562 4.195312 -4.640625 3.875 -4.609375 C 3.476562 -4.566406 3.101562 -4.390625 2.75 -4.078125 C 2.40625 -3.765625 2.140625 -3.382812 1.953125 -2.9375 C 1.765625 -2.519531 1.660156 -2.132812 1.640625 -1.78125 C 1.617188 -1.4375 1.671875 -1.203125 1.796875 -1.078125 C 1.953125 -0.929688 2.132812 -0.925781 2.34375 -1.0625 C 2.5625 -1.195312 2.78125 -1.425781 3 -1.75 C 3.21875 -2.070312 3.414062 -2.429688 3.59375 -2.828125 C 3.769531 -3.222656 3.910156 -3.59375 4.015625 -3.9375 C 4.097656 -4.019531 4.21875 -4.0625 4.375 -4.0625 C 4.53125 -4.070312 4.691406 -4.054688 4.859375 -4.015625 C 5.035156 -3.984375 5.1875 -3.929688 5.3125 -3.859375 C 5.4375 -3.785156 5.515625 -3.710938 5.546875 -3.640625 C 5.484375 -3.429688 5.410156 -3.175781 5.328125 -2.875 C 5.242188 -2.570312 5.171875 -2.273438 5.109375 -1.984375 C 4.953125 -1.316406 5.023438 -0.984375 5.328125 -0.984375 C 5.484375 -0.984375 5.671875 -1.066406 5.890625 -1.234375 C 6.117188 -1.398438 6.34375 -1.625 6.5625 -1.90625 C 6.78125 -2.1875 6.96875 -2.503906 7.125 -2.859375 C 7.144531 -2.921875 7.203125 -2.9375 7.296875 -2.90625 C 7.398438 -2.875 7.488281 -2.820312 7.5625 -2.75 C 7.644531 -2.6875 7.671875 -2.628906 7.640625 -2.578125 C 7.390625 -2.078125 7.101562 -1.625 6.78125 -1.21875 C 6.46875 -0.820312 6.117188 -0.503906 5.734375 -0.265625 C 5.359375 -0.0351562 4.953125 0.078125 4.515625 0.078125 C 4.179688 0.078125 3.9375 -0.0664062 3.78125 -0.359375 C 3.625 -0.648438 3.582031 -1.039062 3.65625 -1.53125 C 3.5 -1.269531 3.328125 -1.015625 3.140625 -0.765625 C 2.953125 -0.515625 2.722656 -0.304688 2.453125 -0.140625 C 2.179688 0.015625 1.851562 0.0976562 1.46875 0.109375 C 1.164062 0.117188 0.878906 0.0546875 0.609375 -0.078125 C 0.347656 -0.222656 0.144531 -0.457031 0 -0.78125 C -0.144531 -1.101562 -0.175781 -1.53125 -0.09375 -2.0625 C -0.0195312 -2.539062 0.128906 -2.988281 0.359375 -3.40625 C 0.585938 -3.820312 0.863281 -4.1875 1.1875 -4.5 C 1.519531 -4.820312 1.875 -5.082031 2.25 -5.28125 C 2.632812 -5.476562 3.007812 -5.609375 3.375 -5.671875 Z M 3.375 -5.671875 "/></g></g></g><g fill="#9b8bbd" fill-opacity="1"><g transform="translate(8.238179, 12.423421)"><g><path d="M 2.796875 -8.9375 C 3.148438 -9.15625 3.5 -9.257812 3.84375 -9.25 C 4.1875 -9.238281 4.492188 -9.132812 4.765625 -8.9375 C 5.046875 -8.738281 5.238281 -8.453125 5.34375 -8.078125 C 5.445312 -7.710938 5.429688 -7.265625 5.296875 -6.734375 C 5.097656 -5.929688 4.695312 -5.21875 4.09375 -4.59375 C 3.5 -3.96875 2.734375 -3.492188 1.796875 -3.171875 C 1.648438 -2.523438 1.628906 -1.992188 1.734375 -1.578125 C 1.847656 -1.171875 2.125 -0.953125 2.5625 -0.921875 C 2.96875 -0.898438 3.390625 -1.0625 3.828125 -1.40625 C 4.273438 -1.75 4.65625 -2.234375 4.96875 -2.859375 C 5 -2.921875 5.054688 -2.929688 5.140625 -2.890625 C 5.234375 -2.859375 5.316406 -2.804688 5.390625 -2.734375 C 5.472656 -2.671875 5.503906 -2.617188 5.484375 -2.578125 C 5.222656 -2.066406 4.929688 -1.59375 4.609375 -1.15625 C 4.296875 -0.726562 3.921875 -0.394531 3.484375 -0.15625 C 3.046875 0.0820312 2.507812 0.171875 1.875 0.109375 C 1.238281 0.0351562 0.785156 -0.207031 0.515625 -0.625 C 0.242188 -1.039062 0.113281 -1.582031 0.125 -2.25 C 0.132812 -2.914062 0.226562 -3.664062 0.40625 -4.5 C 0.539062 -5.144531 0.722656 -5.757812 0.953125 -6.34375 C 1.191406 -6.9375 1.460938 -7.457031 1.765625 -7.90625 C 2.078125 -8.363281 2.421875 -8.707031 2.796875 -8.9375 Z M 3.796875 -8.046875 C 3.628906 -8.054688 3.460938 -7.910156 3.296875 -7.609375 C 3.128906 -7.316406 2.953125 -6.945312 2.765625 -6.5 C 2.660156 -6.195312 2.535156 -5.835938 2.390625 -5.421875 C 2.242188 -5.003906 2.117188 -4.601562 2.015625 -4.21875 C 2.347656 -4.425781 2.660156 -4.722656 2.953125 -5.109375 C 3.253906 -5.503906 3.484375 -5.894531 3.640625 -6.28125 C 3.773438 -6.59375 3.867188 -6.878906 3.921875 -7.140625 C 3.984375 -7.410156 4.003906 -7.628906 3.984375 -7.796875 C 3.972656 -7.960938 3.910156 -8.046875 3.796875 -8.046875 Z M 3.796875 -8.046875 "/></g></g></g><g fill="#9b8bbd" fill-opacity="1"><g transform="translate(13.069688, 12.423421)"><g><path d="M 3.375 -5.671875 C 3.6875 -5.734375 4.035156 -5.75 4.421875 -5.71875 C 4.816406 -5.6875 5.195312 -5.601562 5.5625 -5.46875 C 5.9375 -5.34375 6.25 -5.144531 6.5 -4.875 C 6.550781 -4.789062 6.535156 -4.675781 6.453125 -4.53125 C 6.367188 -4.382812 6.265625 -4.257812 6.140625 -4.15625 C 6.015625 -4.050781 5.910156 -4.015625 5.828125 -4.046875 C 5.546875 -4.253906 5.226562 -4.40625 4.875 -4.5 C 4.53125 -4.601562 4.195312 -4.640625 3.875 -4.609375 C 3.476562 -4.566406 3.101562 -4.390625 2.75 -4.078125 C 2.40625 -3.765625 2.140625 -3.382812 1.953125 -2.9375 C 1.765625 -2.519531 1.660156 -2.132812 1.640625 -1.78125 C 1.617188 -1.4375 1.671875 -1.203125 1.796875 -1.078125 C 1.953125 -0.929688 2.132812 -0.925781 2.34375 -1.0625 C 2.5625 -1.195312 2.78125 -1.425781 3 -1.75 C 3.21875 -2.070312 3.414062 -2.429688 3.59375 -2.828125 C 3.769531 -3.222656 3.910156 -3.59375 4.015625 -3.9375 C 4.097656 -4.019531 4.21875 -4.0625 4.375 -4.0625 C 4.53125 -4.070312 4.691406 -4.054688 4.859375 -4.015625 C 5.035156 -3.984375 5.1875 -3.929688 5.3125 -3.859375 C 5.4375 -3.785156 5.515625 -3.710938 5.546875 -3.640625 C 5.484375 -3.429688 5.410156 -3.175781 5.328125 -2.875 C 5.242188 -2.570312 5.171875 -2.273438 5.109375 -1.984375 C 4.953125 -1.316406 5.023438 -0.984375 5.328125 -0.984375 C 5.484375 -0.984375 5.671875 -1.066406 5.890625 -1.234375 C 6.117188 -1.398438 6.34375 -1.625 6.5625 -1.90625 C 6.78125 -2.1875 6.96875 -2.503906 7.125 -2.859375 C 7.144531 -2.921875 7.203125 -2.9375 7.296875 -2.90625 C 7.398438 -2.875 7.488281 -2.820312 7.5625 -2.75 C 7.644531 -2.6875 7.671875 -2.628906 7.640625 -2.578125 C 7.390625 -2.078125 7.101562 -1.625 6.78125 -1.21875 C 6.46875 -0.820312 6.117188 -0.503906 5.734375 -0.265625 C 5.359375 -0.0351562 4.953125 0.078125 4.515625 0.078125 C 4.179688 0.078125 3.9375 -0.0664062 3.78125 -0.359375 C 3.625 -0.648438 3.582031 -1.039062 3.65625 -1.53125 C 3.5 -1.269531 3.328125 -1.015625 3.140625 -0.765625 C 2.953125 -0.515625 2.722656 -0.304688 2.453125 -0.140625 C 2.179688 0.015625 1.851562 0.0976562 1.46875 0.109375 C 1.164062 0.117188 0.878906 0.0546875 0.609375 -0.078125 C 0.347656 -0.222656 0.144531 -0.457031 0 -0.78125 C -0.144531 -1.101562 -0.175781 -1.53125 -0.09375 -2.0625 C -0.0195312 -2.539062 0.128906 -2.988281 0.359375 -3.40625 C 0.585938 -3.820312 0.863281 -4.1875 1.1875 -4.5 C 1.519531 -4.820312 1.875 -5.082031 2.25 -5.28125 C 2.632812 -5.476562 3.007812 -5.609375 3.375 -5.671875 Z M 3.375 -5.671875 "/></g></g></g><g fill="#9b8bbd" fill-opacity="1"><g transform="translate(20.06936, 12.423421)"><g><path d="M 7.5625 0.125 C 6.96875 0.132812 6.578125 -0.00390625 6.390625 -0.296875 C 6.203125 -0.585938 6.15625 -0.976562 6.25 -1.46875 C 6.289062 -1.632812 6.34375 -1.851562 6.40625 -2.125 C 6.46875 -2.40625 6.535156 -2.691406 6.609375 -2.984375 C 6.691406 -3.273438 6.757812 -3.53125 6.8125 -3.75 C 6.851562 -3.925781 6.863281 -4.09375 6.84375 -4.25 C 6.832031 -4.40625 6.726562 -4.476562 6.53125 -4.46875 C 6.332031 -4.457031 6.109375 -4.335938 5.859375 -4.109375 C 5.609375 -3.890625 5.410156 -3.648438 5.265625 -3.390625 C 5.179688 -3.097656 5.09375 -2.753906 5 -2.359375 C 4.90625 -1.960938 4.8125 -1.566406 4.71875 -1.171875 C 4.625 -0.785156 4.539062 -0.441406 4.46875 -0.140625 C 4.425781 -0.0664062 4.316406 -0.0078125 4.140625 0.03125 C 3.972656 0.0703125 3.78125 0.09375 3.5625 0.09375 C 3.34375 0.09375 3.148438 0.0664062 2.984375 0.015625 C 2.828125 -0.0234375 2.734375 -0.0976562 2.703125 -0.203125 C 2.835938 -0.785156 2.972656 -1.367188 3.109375 -1.953125 C 3.253906 -2.546875 3.414062 -3.171875 3.59375 -3.828125 C 3.625 -3.984375 3.628906 -4.125 3.609375 -4.25 C 3.585938 -4.382812 3.492188 -4.453125 3.328125 -4.453125 C 3.140625 -4.441406 2.925781 -4.332031 2.6875 -4.125 C 2.445312 -3.914062 2.222656 -3.664062 2.015625 -3.375 C 1.859375 -2.8125 1.710938 -2.269531 1.578125 -1.75 C 1.453125 -1.238281 1.328125 -0.703125 1.203125 -0.140625 C 1.171875 -0.0664062 1.0625 -0.0078125 0.875 0.03125 C 0.6875 0.0703125 0.476562 0.0859375 0.25 0.078125 C 0.03125 0.078125 -0.160156 0.0507812 -0.328125 0 C -0.492188 -0.0625 -0.578125 -0.15625 -0.578125 -0.28125 C -0.347656 -1.164062 -0.117188 -2.03125 0.109375 -2.875 C 0.347656 -3.726562 0.609375 -4.628906 0.890625 -5.578125 C 0.953125 -5.640625 1.066406 -5.6875 1.234375 -5.71875 C 1.398438 -5.75 1.578125 -5.75 1.765625 -5.71875 C 1.953125 -5.695312 2.117188 -5.65625 2.265625 -5.59375 C 2.410156 -5.53125 2.503906 -5.445312 2.546875 -5.34375 C 2.503906 -5.207031 2.457031 -5.054688 2.40625 -4.890625 C 2.363281 -4.734375 2.320312 -4.59375 2.28125 -4.46875 C 2.445312 -4.65625 2.644531 -4.84375 2.875 -5.03125 C 3.113281 -5.226562 3.363281 -5.390625 3.625 -5.515625 C 3.894531 -5.648438 4.15625 -5.71875 4.40625 -5.71875 C 4.75 -5.71875 5.007812 -5.613281 5.1875 -5.40625 C 5.375 -5.195312 5.441406 -4.910156 5.390625 -4.546875 C 5.648438 -4.835938 5.960938 -5.101562 6.328125 -5.34375 C 6.703125 -5.59375 7.101562 -5.71875 7.53125 -5.71875 C 8.082031 -5.71875 8.4375 -5.554688 8.59375 -5.234375 C 8.757812 -4.910156 8.78125 -4.484375 8.65625 -3.953125 C 8.601562 -3.753906 8.535156 -3.523438 8.453125 -3.265625 C 8.378906 -3.003906 8.300781 -2.738281 8.21875 -2.46875 C 8.132812 -2.195312 8.070312 -1.941406 8.03125 -1.703125 C 8 -1.472656 7.992188 -1.289062 8.015625 -1.15625 C 8.046875 -1.019531 8.132812 -0.953125 8.28125 -0.953125 C 8.414062 -0.953125 8.582031 -1.035156 8.78125 -1.203125 C 8.988281 -1.367188 9.195312 -1.59375 9.40625 -1.875 C 9.625 -2.164062 9.8125 -2.492188 9.96875 -2.859375 C 10 -2.921875 10.0625 -2.9375 10.15625 -2.90625 C 10.25 -2.875 10.332031 -2.820312 10.40625 -2.75 C 10.488281 -2.6875 10.515625 -2.628906 10.484375 -2.578125 C 10.335938 -2.296875 10.164062 -2 9.96875 -1.6875 C 9.78125 -1.382812 9.566406 -1.097656 9.328125 -0.828125 C 9.085938 -0.554688 8.820312 -0.332031 8.53125 -0.15625 C 8.238281 0.0078125 7.914062 0.101562 7.5625 0.125 Z M 7.5625 0.125 "/></g></g></g><g fill="#9b8bbd" fill-opacity="1"><g transform="translate(29.906367, 12.423421)"><g><path d="M 2.234375 0.15625 C 1.992188 0.15625 1.75 0.101562 1.5 0 C 1.257812 -0.09375 1.050781 -0.242188 0.875 -0.453125 C 0.695312 -0.660156 0.59375 -0.925781 0.5625 -1.25 C 0.59375 -1.382812 0.671875 -1.492188 0.796875 -1.578125 C 0.921875 -1.660156 1.054688 -1.710938 1.203125 -1.734375 C 1.347656 -1.753906 1.460938 -1.738281 1.546875 -1.6875 C 1.535156 -1.46875 1.59375 -1.285156 1.71875 -1.140625 C 1.84375 -0.992188 2.003906 -0.921875 2.203125 -0.921875 C 2.421875 -0.921875 2.59375 -1.003906 2.71875 -1.171875 C 2.601562 -1.273438 2.539062 -1.394531 2.53125 -1.53125 C 2.519531 -1.675781 2.550781 -1.804688 2.625 -1.921875 C 2.707031 -2.046875 2.816406 -2.109375 2.953125 -2.109375 C 2.941406 -2.609375 2.859375 -3.109375 2.703125 -3.609375 C 2.554688 -4.109375 2.445312 -4.609375 2.375 -5.109375 C 2.15625 -4.898438 1.925781 -4.625 1.6875 -4.28125 C 1.457031 -3.945312 1.234375 -3.59375 1.015625 -3.21875 C 0.796875 -2.84375 0.601562 -2.492188 0.4375 -2.171875 C 0.40625 -2.109375 0.335938 -2.085938 0.234375 -2.109375 C 0.140625 -2.128906 0.0546875 -2.175781 -0.015625 -2.25 C -0.0859375 -2.320312 -0.109375 -2.390625 -0.078125 -2.453125 C 0.0976562 -2.816406 0.300781 -3.195312 0.53125 -3.59375 C 0.769531 -4 1.023438 -4.390625 1.296875 -4.765625 C 1.566406 -5.140625 1.847656 -5.472656 2.140625 -5.765625 C 2.410156 -6.015625 2.691406 -6.179688 2.984375 -6.265625 C 3.273438 -6.347656 3.53125 -6.351562 3.75 -6.28125 C 3.976562 -6.21875 4.125 -6.09375 4.1875 -5.90625 C 4.257812 -5.726562 4.191406 -5.5 3.984375 -5.21875 C 4.097656 -4.675781 4.21875 -4.191406 4.34375 -3.765625 C 4.476562 -3.347656 4.578125 -2.945312 4.640625 -2.5625 C 4.710938 -2.1875 4.703125 -1.785156 4.609375 -1.359375 C 4.890625 -1.367188 5.1875 -1.484375 5.5 -1.703125 C 5.8125 -1.929688 6.09375 -2.316406 6.34375 -2.859375 C 6.375 -2.921875 6.4375 -2.929688 6.53125 -2.890625 C 6.625 -2.859375 6.707031 -2.804688 6.78125 -2.734375 C 6.851562 -2.671875 6.882812 -2.617188 6.875 -2.578125 C 6.507812 -1.828125 6.101562 -1.320312 5.65625 -1.0625 C 5.207031 -0.800781 4.75 -0.675781 4.28125 -0.6875 C 4.082031 -0.40625 3.800781 -0.191406 3.4375 -0.046875 C 3.082031 0.0859375 2.679688 0.15625 2.234375 0.15625 Z M 2.234375 0.15625 "/></g></g></g></g></g></g></g></svg>